<svg width="100" height="42" viewBox="0 0 100 42" fill="none" xmlns="http://www.w3.org/2000/svg">
<path d="M92.3002 28.9136C92.0333 28.9136 91.8495 28.7273 91.8495 28.4594V15.1506H87.3592C87.0922 15.1506 86.9081 14.9651 86.9081 14.6968V12.861C86.9081 12.5922 87.0923 12.4062 87.3592 12.4062H99.3115C99.5782 12.4062 99.7619 12.5924 99.7619 12.861V14.6967C99.7619 14.9648 99.5782 15.1506 99.3115 15.1506H94.8216V28.4592C94.8216 28.7273 94.6369 28.9136 94.3709 28.9136H92.3002ZM57.904 22.2691L55.5469 15.4605L53.1687 22.2691H57.904ZM63.1318 28.3758C63.2349 28.6448 63.0705 28.9136 62.7835 28.9136H60.6518C60.3441 28.9136 60.1594 28.7696 60.0565 28.4794L58.8475 24.9728H52.2264L51.0153 28.4794C50.9135 28.7697 50.7283 28.9136 50.4214 28.9136H48.413C48.1461 28.9136 47.9613 28.6447 48.0639 28.3758L53.6195 12.8198C53.7223 12.5299 53.9067 12.4069 54.2136 12.4069H56.9608C57.2686 12.4069 57.4737 12.53 57.5761 12.8198L63.1318 28.3758ZM79.0563 26.6847C80.3677 26.6847 81.2497 26.0462 81.9674 24.9521L78.6469 21.3614C77.3752 22.0841 76.5548 22.8053 76.5548 24.2501C76.555 25.6741 77.7025 26.6847 79.0563 26.6847ZM79.9787 14.5933C78.913 14.5933 78.298 15.2749 78.298 16.1826C78.298 16.884 78.6662 17.5031 79.5071 18.4113C80.9625 17.5647 81.5779 17.0491 81.5779 16.1415C81.5779 15.2949 81.0451 14.5933 79.9787 14.5933ZM89.0612 28.3358C89.3274 28.6249 89.1638 28.9136 88.8348 28.9136H86.2313C85.8829 28.9136 85.6984 28.8307 85.473 28.5621L83.915 26.8296C82.8697 28.2328 81.4129 29.2849 78.9944 29.2849C76.0014 29.2849 73.6432 27.4692 73.6432 24.3541C73.6432 21.9599 74.9149 20.6803 76.8422 19.6076C75.8984 18.5141 75.4687 17.3585 75.4687 16.348C75.4687 13.7887 77.2522 12.0352 79.9373 12.0352C82.6844 12.0352 84.3658 13.6658 84.3658 16.0795C84.3658 18.1428 82.8901 19.2973 81.3315 20.1645L83.628 22.662L84.9193 20.3915C85.0831 20.1237 85.2677 20.0201 85.5953 20.0201H87.5834C87.912 20.0201 88.0965 20.2477 87.8921 20.5983L85.5956 24.5593L89.0612 28.3358ZM68.602 28.9136C68.8685 28.9136 69.0539 28.7273 69.0539 28.4594V15.1506H73.5429C73.8094 15.1506 73.9937 14.9651 73.9937 14.6968V12.861C73.9937 12.5922 73.8094 12.4062 73.5429 12.4062H61.5906C61.3237 12.4062 61.1396 12.5924 61.1396 12.861V14.6967C61.1396 14.9648 61.3238 15.1506 61.5906 15.1506H66.0796V28.4592C66.0796 28.7273 66.2647 28.9136 66.5309 28.9136H68.602Z" fill="#A0A0B9"/>
<path d="M7.93181 36.9413C11.4085 39.6511 15.7725 41.2792 20.5071 41.2792C25.6883 41.2792 30.4118 39.3424 34.0167 36.163C34.0604 36.1242 34.0388 36.0984 33.9957 36.1242C32.3781 37.2119 27.7677 39.5864 20.5073 39.5864C14.1977 39.5864 10.2103 38.1689 7.95854 36.9034C7.91545 36.882 7.89949 36.9146 7.93181 36.9413ZM21.8991 37.9963C26.9456 37.9963 32.4911 36.6112 35.8078 33.8694C36.7154 33.1223 37.5799 32.1281 38.3542 30.7918C38.7999 30.023 39.2358 29.1096 39.5909 28.2117C39.6067 28.1679 39.5798 28.1466 39.5471 28.1958C36.4628 32.7658 27.5315 35.6163 18.3094 35.6163C11.7908 35.6163 4.77702 33.5175 2.03105 29.51C2.00402 29.4729 1.97699 29.4888 1.99345 29.5313C4.55151 35.0058 12.3121 37.9963 21.8991 37.9963ZM16.3853 28.9145C5.88958 28.9145 0.940622 23.9927 0.042887 20.6338C0.0318162 20.5852 0 20.5959 0 20.6396C0 21.7703 0.112404 23.2295 0.305794 24.1981C0.398051 24.6696 0.779148 25.4095 1.33788 25.9993C3.87938 28.6666 10.2157 32.4041 21.1892 32.4041C36.1401 32.4041 39.5586 27.3896 40.2567 25.7406C40.7558 24.5612 41.0145 22.43 41.0145 20.6397C41.0145 20.2064 41.0037 19.8604 40.9874 19.5207C40.9874 19.4655 40.9557 19.461 40.9447 19.5147C40.1976 23.5498 27.4238 28.9145 16.3853 28.9145ZM1.97699 11.7851C1.37558 12.9869 0.708933 15.0143 0.510755 16.0636C0.423883 16.5132 0.460886 16.7291 0.617473 17.0646C1.87546 19.752 8.2386 24.0519 23.0813 24.0519C32.1364 24.0519 39.1707 21.812 40.3103 17.7245C40.5202 16.972 40.5314 16.1776 40.2618 15.1071C39.9606 13.9109 39.3965 12.5159 38.9191 11.5364C38.9033 11.5045 38.8755 11.5092 38.8812 11.5469C39.0585 16.9081 24.2099 20.3633 16.718 20.3633C8.60284 20.3633 1.83257 17.1078 1.83257 12.9971C1.83257 12.6022 1.91376 12.2071 2.01509 11.796C2.02526 11.7584 1.99335 11.7522 1.97699 11.7851ZM34.0499 5.20277C34.1361 5.33874 34.1791 5.48385 34.1791 5.67917C34.1791 7.97241 27.2083 12.0293 16.1119 12.0293C7.95854 12.0293 6.43206 8.98387 6.43206 7.04712C6.43206 6.35481 6.69576 5.64644 7.27653 4.92701C7.30825 4.88423 7.28132 4.86776 7.24472 4.8996C6.18551 5.8034 5.21227 6.82037 4.35852 7.91819C3.95059 8.43737 3.69736 8.8973 3.69736 9.17286C3.69736 13.1864 13.6926 16.0965 23.0385 16.0965C32.9967 16.0965 37.441 12.8233 37.441 9.94681C37.441 8.91879 37.0435 8.31867 36.0268 7.15518C35.3668 6.3983 34.7426 5.78201 34.0818 5.17536C34.0499 5.14884 34.0277 5.17043 34.0499 5.20277ZM30.997 2.91003C27.9237 1.05524 24.3548 0 20.5073 0C16.6329 0 12.9565 1.09209 9.8721 2.99599C8.94693 3.5693 8.4262 4.02874 8.4262 4.61932C8.4262 6.36024 12.4671 8.23211 19.6361 8.23211C26.7307 8.23211 32.2334 6.18179 32.2334 4.20819C32.2334 3.73711 31.8245 3.40752 30.997 2.91003Z" fill="#A0A0B9"/>
</svg>
