<svg width="98" height="60" viewBox="0 0 98 60" fill="none" xmlns="http://www.w3.org/2000/svg">
<path d="M49.6777 49.79H0V0H49.6777V49.79ZM26.2568 2.62891C14.8658 2.55558 4.10508 11.845 4.10547 24.8945C4.10443 38.0127 14.8218 47.1434 26.2139 47.1621C33.398 47.1745 41.0863 43.6751 45.5713 35.9248L33.2344 28.8301C31.7071 31.5653 28.701 32.9449 26.2305 32.9033C22.0973 32.8329 18.3182 29.4875 18.3203 24.875C18.3181 20.3912 22.0848 16.8764 26.4521 16.9131C28.8503 16.9333 31.4245 18.046 33.2324 20.9551L45.5703 13.8789L45.5713 13.8779C41.1747 6.16083 33.644 2.67711 26.2568 2.62891Z" fill="#A0A0B9"/>
<path d="M81.626 21.3574V3.55859H95.8008L95.8018 46.2314H81.626L67.4248 28.4629V46.2314H53.2344L53.2373 3.55859H67.4238L81.626 21.3574Z" fill="#A0A0B9"/>
<path d="M5.5115 53.4022C6.29185 53.6222 6.94793 54.1697 7.37205 54.8553L5.73853 55.792C5.45376 55.3942 4.98482 55.1088 4.48143 55.1844C3.98427 55.2328 3.54857 55.612 3.41788 56.094C3.21636 56.9497 3.82712 57.6602 4.57401 57.6969C4.99182 57.7094 5.43744 57.5246 5.73849 57.0784L7.37201 58.0238C6.83284 58.9176 5.87808 59.5237 4.83696 59.6119C2.90662 59.6714 1.24242 58.1894 1.50856 55.9327C1.86718 53.976 3.68307 52.8939 5.51146 53.4023L5.5115 53.4022Z" fill="#A0A0B9"/>
<path d="M31.0042 53.2853C30.395 53.2422 29.7685 53.3737 29.2054 53.7011C27.7039 54.574 27.1847 56.5315 28.0553 58.0368C28.926 59.5422 30.8787 60.0629 32.3803 59.1901C33.8168 58.3552 34.3399 56.5314 33.6217 55.0565C33.5989 54.9865 33.5686 54.9191 33.5313 54.8557C33.5311 54.8552 33.5309 54.8548 33.5307 54.8543C33.5305 54.8542 33.5304 54.854 33.5303 54.8539C33.4931 54.7881 33.4487 54.7266 33.3978 54.6706C32.8383 53.8475 31.9474 53.3519 31.004 53.2852L31.0042 53.2853ZM30.8732 55.297C31.2375 55.3204 31.5799 55.5221 31.7815 55.8706L31.7817 55.8708L31.7818 55.8712C32.1041 56.4289 31.9223 57.1132 31.3661 57.4365C30.8098 57.7598 30.127 57.5778 29.8044 57.0201C29.4818 56.4624 29.6635 55.778 30.2198 55.4546V55.4545C30.4284 55.3332 30.6547 55.2831 30.8732 55.2971L30.8732 55.297Z" fill="#A0A0B9"/>
<path d="M81.7542 53.2853C81.145 53.2422 80.5185 53.3737 79.9554 53.7011C78.4539 54.574 77.9347 56.5315 78.8053 58.0368C79.676 59.5422 81.6288 60.0629 83.1303 59.1901C84.5669 58.3551 85.0902 56.5308 84.3716 55.0559C84.3488 54.9861 84.3186 54.9189 84.2814 54.8557C84.2814 54.8552 84.2814 54.8548 84.2807 54.8543V54.8539C84.2434 54.788 84.199 54.7265 84.1481 54.6705C83.5885 53.8474 82.6975 53.3518 81.7542 53.2852L81.7542 53.2853ZM81.6232 55.297C81.9874 55.3204 82.3299 55.5221 82.5315 55.8706V55.8708V55.8712C82.8538 56.4289 82.6722 57.1132 82.116 57.4365C81.5597 57.7598 80.877 57.5778 80.5545 57.0201C80.2319 56.4624 80.4134 55.778 80.9697 55.4546V55.4545C81.1783 55.3332 81.4046 55.2831 81.6231 55.2971L81.6232 55.297Z" fill="#A0A0B9"/>
<path d="M12.4267 53.4062H9.39719L7.5 59.4866H9.63229L9.94394 58.4668H11.8865L12.1923 59.4866H14.3239L12.4267 53.4062ZM10.9124 55.0837L11.4541 56.9705H10.3693L10.9124 55.0837Z" fill="#A0A0B9"/>
<path d="M14.9336 53.4062V59.4866H16.9424V57.709H17.5971L18.4974 59.4866H20.7319L19.561 57.4922C20.4628 56.9126 20.7715 56.1943 20.7375 55.4726C20.7382 54.3827 19.7589 53.4368 18.6881 53.4062H14.9336ZM18.2789 55.1796C18.5377 55.183 18.7265 55.4354 18.7379 55.6513C18.7445 55.9601 18.5101 56.1917 18.2769 56.1972L16.9424 56.1992V55.1796L18.2789 55.1796Z" fill="#A0A0B9"/>
<path d="M21.293 55.1776V53.4023H27.3702V55.1776H25.4686V59.4826H23.1957V55.1776H21.293Z" fill="#A0A0B9"/>
<path d="M41.4258 53.4062H43.4304L45.484 55.9346V53.4062H47.4899V59.4866H45.484L43.4304 56.9527V59.4866H41.4258V53.4062Z" fill="#A0A0B9"/>
<path d="M51.5898 53.4062H53.5943L55.6479 55.9346V53.4062H57.6538V59.4866H55.6479L53.5943 56.9527V59.4866H51.5898V53.4062Z" fill="#A0A0B9"/>
<path d="M58.5274 53.4062H63.8238L63.8238 55.1801H60.5335V55.8026H63.304V57.223H60.5335V57.8629H63.8238L63.8237 59.4866H58.5273L58.5274 53.4062Z" fill="#A0A0B9"/>
<path d="M64.4922 55.1776V53.4023H70.5694V55.1776H68.6678V59.4826H66.395V55.1776H64.4922Z" fill="#A0A0B9"/>
<path d="M71.0781 53.4062H73.1169C73.1169 53.4062 73.6268 56.0614 73.6289 56.0722L74.6336 53.6238L75.6567 56.0667L76.1687 53.4062H78.1888L77.0338 59.4866H75.3528L74.6335 57.8452L73.9056 59.4866H72.2527C72.2527 59.4866 71.1002 53.5435 71.0783 53.4062H71.0781Z" fill="#A0A0B9"/>
<path d="M85.293 53.4062V59.4866H87.3017L87.3056 57.709H87.9563L88.8564 59.4866H91.0912L89.9203 57.4922C90.822 56.9126 91.1311 56.1943 91.0971 55.4726C91.0978 54.3827 90.1182 53.4368 89.0474 53.4062H85.293ZM88.6383 55.1796C88.8971 55.183 89.0857 55.4354 89.0971 55.6513C89.1037 55.9601 88.8694 56.1917 88.6363 56.1972L87.3017 56.1992V55.1796L88.6383 55.1796Z" fill="#A0A0B9"/>
<path d="M91.7422 59.4827V53.4023H93.7708V55.3722L95.2835 53.4023H97.87L95.5227 56.3011L97.87 59.4827H95.2835L93.7708 57.2199V59.4827H91.7422Z" fill="#A0A0B9"/>
<path d="M37.8596 53.2853C37.2505 53.2422 36.624 53.3737 36.0609 53.7011C34.5594 54.574 34.0401 56.5315 34.9108 58.0368C35.7814 59.5422 37.734 60.0629 39.2356 59.1901C40.6722 58.3552 41.1954 56.5314 40.4772 55.0565C40.4544 54.9865 40.4241 54.9191 40.3868 54.8557C40.3865 54.8552 40.3864 54.8548 40.3862 54.8543C40.386 54.8542 40.3859 54.854 40.3858 54.8539C40.3485 54.788 40.3041 54.7265 40.2532 54.6705C39.6936 53.8475 38.8027 53.3518 37.8595 53.2852L37.8596 53.2853ZM37.7287 55.297C38.0929 55.3204 38.4352 55.5221 38.6368 55.8706L38.637 55.8708L38.6371 55.8712C38.9594 56.4289 38.7778 57.1132 38.2216 57.4365C37.6653 57.7598 36.9824 57.5778 36.6598 57.0201C36.3373 56.4624 36.5188 55.778 37.0751 55.4546V55.4545C37.2837 55.3332 37.5102 55.2831 37.7287 55.2971L37.7287 55.297Z" fill="#A0A0B9"/>
</svg>
