<svg width="100" height="45" viewBox="0 0 100 45" fill="none" xmlns="http://www.w3.org/2000/svg">
<path d="M95.1782 25.7575C94.6381 25.7575 94.1991 25.2909 94.1991 24.7175C94.1991 24.1423 94.6381 23.6787 95.1782 23.6787C95.7193 23.6787 96.1581 24.1423 96.1581 24.7175C96.1581 25.2909 95.7193 25.7575 95.1782 25.7575ZM95.1782 23.4265C94.5072 23.4265 93.9609 24.002 93.9609 24.7175C93.9609 25.431 94.5072 26.0117 95.1782 26.0117C95.8511 26.0117 96.3986 25.431 96.3986 24.7175C96.3986 24.002 95.8511 23.4265 95.1782 23.4265Z" fill="#A0A0B9"/>
<path d="M94.9745 24.9257H95.0517L95.1285 24.9296C95.1822 24.9334 95.2244 24.9382 95.2502 24.9516C95.2961 24.9691 95.3332 25.0037 95.3494 25.0492C95.362 25.0806 95.369 25.134 95.369 25.2131C95.373 25.2942 95.3807 25.3567 95.3935 25.3984H95.7327L95.7204 25.3611C95.7172 25.3482 95.7125 25.3359 95.7125 25.3215C95.7125 25.3092 95.7087 25.2974 95.7087 25.2829V25.1643C95.7087 25.0244 95.6718 24.9257 95.5893 24.8649C95.5451 24.8269 95.4797 24.8036 95.3948 24.7844C95.489 24.7758 95.5681 24.7438 95.6321 24.6946C95.6976 24.6458 95.7283 24.5621 95.7283 24.4506C95.7283 24.3017 95.6666 24.1956 95.5451 24.1309C95.4752 24.0927 95.3871 24.0672 95.2758 24.0608C95.2583 24.0608 95.1652 24.0608 94.9974 24.0587H94.6172V25.3984H94.9745V24.9257ZM95.308 24.6347C95.2628 24.6675 95.1954 24.6851 95.1121 24.6851H94.9745V24.2938H95.0603C95.1498 24.2938 95.2176 24.3017 95.2677 24.3209C95.3411 24.3524 95.3767 24.401 95.3767 24.4749C95.3767 24.5505 95.3558 24.601 95.308 24.6347Z" fill="#A0A0B9"/>
<path d="M47.1973 30.4765C48.0052 30.4765 48.1973 31.2864 48.1594 31.7398C47.9993 33.6117 45.4707 35.134 44.8302 35.2098C45.1731 31.3394 46.305 30.5207 47.1973 30.4765ZM22.0004 30.8895C21.49 31.6686 20.8456 32.5281 20.0553 33.482C20.0976 33.0901 20.1394 32.7178 20.1851 32.3591C20.8195 27.2576 21.7574 25.5444 22.9783 25.7607C23.3759 25.8448 23.5384 26.2769 23.5484 26.6265C23.6379 27.7362 23.1695 29.1026 22.0004 30.8895ZM91.1049 35.6452C90.4868 34.71 89.9196 33.7073 89.4301 32.6911C88.6109 33.8558 87.7009 35.0266 86.7646 36.1405C88.071 36.1074 89.567 35.9733 91.1049 35.6452ZM89.8407 28.0457C90.3514 27.0746 90.6729 26.2288 90.7145 25.6003C90.7605 25.2266 90.6979 24.5809 90.1702 24.5809C89.2582 24.5809 89.2582 26.0556 89.8407 28.0457ZM73.7827 34.2043C76.0036 31.6092 77.1394 27.7168 76.8774 26.121C76.8202 25.7867 76.6946 25.5301 76.3656 25.5706C75.3286 25.7039 72.9098 30.4073 73.7827 34.2043ZM60.975 37.5866C60.1006 37.3036 59.3742 36.8062 58.9479 36.2714C58.9162 36.2975 58.887 36.3206 58.8548 36.3437C58.8511 36.3844 58.8428 36.4265 58.8313 36.4666C58.8083 39.7285 59.917 42.7443 61.1462 42.5994C62.4415 42.372 61.8304 39.5751 60.975 37.5866ZM59.029 33.6068C61.5524 31.0903 63.5176 27.5056 63.5046 25.5864C63.5046 25.217 63.4225 24.8917 63.0752 24.8917C62.2859 24.8917 59.7106 27.538 59.029 33.6068ZM51.6653 36.0982C50.6515 36.1909 50.428 38.5096 48.4042 38.6211C47.0227 38.698 46.3897 36.9662 46.3897 36.9662C46.3897 36.9662 50.2988 35.1554 50.27 31.2451C50.2071 30.1245 49.6508 28.33 47.5828 28.33C46.6895 28.33 45.7006 28.9093 45.1138 29.5479C45.3132 28.4901 45.5012 27.1318 45.5897 25.2859C45.6475 24.0846 44.81 23.9687 44.4854 23.9868C44.2443 23.999 43.5424 24.1843 43.4471 25.271C43.1273 28.8952 43.0789 29.4334 42.7893 31.7389C42.2586 35.9733 39.3215 37.4459 37.4088 37.3343C36.5949 37.2861 35.3216 36.8434 35.3216 34.6039C35.3216 32.2015 36.8231 30.4231 37.6201 30.5322C38.1813 30.6085 38.4708 31.2026 37.9729 32.055C37.5702 32.7616 37.1482 33.7451 38.1874 34.1494C39.4215 34.5787 40.3341 32.7589 40.3674 31.0728C40.3674 29.7591 39.5571 28.2251 37.5702 28.1257C35.4789 28.0209 32.9809 30.9176 32.9809 34.8115C32.9809 35.1359 33.0031 35.4398 33.0438 35.7291C32.8928 36.6093 32.1534 37.5115 31.4172 37.5115C30.6174 37.5115 29.9426 36.3071 30.027 34.7703C30.1163 33.1854 30.5929 32.1301 30.7937 31.499C31.2071 30.188 30.7172 29.9234 30.1349 29.8097C29.6773 29.7224 28.9507 29.8435 28.5682 31.1469C28.2206 32.3294 27.7684 33.9455 27.3748 35.134C27.1302 35.8729 26.8179 36.7159 26.4064 37.2923C26.045 37.7046 25.6539 37.9761 25.2878 37.9761C23.9955 37.9883 25.0904 35.3262 25.0904 33.5008C25.0778 32.9848 24.6908 32.043 23.4038 32.304C24.8288 30.1438 25.5494 28.2958 25.5044 26.4072C25.4183 24.3338 23.9672 23.7316 22.8716 23.7533C19.9371 23.8164 18.4019 27.2237 17.8445 35.1904C15.2001 37.8324 11.9787 39.4273 8.9064 39.1651C4.56128 38.793 2.32167 34.2876 2.61177 28.885C3.01987 21.3044 8.6747 12.159 14.0651 12.7207C15.9545 12.9189 17.2575 14.6838 17.0564 18.509C16.8217 22.9435 13.8017 29.4104 10.613 29.2207C9.14086 29.1332 8.68112 27.538 8.7934 26.1272C9.03617 23.0721 10.5014 22.2339 10.5992 20.9952C10.6561 20.2669 9.95125 19.9487 9.43429 20.1221C8.54686 20.4222 6.77925 22.7503 6.56377 26.0618C6.30034 30.1075 8.81937 31.37 10.3127 31.4583C14.7306 31.7212 19.0421 25.183 19.4051 18.3147C19.6383 13.8693 17.8097 10.9991 14.3478 10.6049C7.6167 9.84053 0.54556 19.1826 0.184091 28.9681C-0.0330402 34.819 2.63593 40.9432 8.86061 41.4092C11.8342 41.6114 14.9459 40.3711 17.6683 38.1457C17.6633 38.6442 17.6683 39.0878 17.6669 39.421C17.6916 40.2406 17.9692 40.948 18.8208 40.9206C19.6335 40.8906 19.8475 40.2688 19.8284 39.523C19.818 39.0899 19.8211 38.6695 19.8307 38.2608C20.0085 34.6977 21.6883 34.1823 22.3682 34.3096C23.306 34.5182 22.5586 35.42 22.652 37.9772C22.7183 39.8096 24.1343 40.2983 24.7848 40.2983C26.3228 40.2983 27.6584 39.1225 28.4409 37.3711L28.4682 37.3502C29.1475 39.1454 30.2999 39.7883 31.2199 39.7883C32.299 39.7883 33.3206 38.9536 33.9591 38.0274C34.8325 39.1821 36.1173 39.6907 37.0764 39.7376C39.0207 39.8314 40.6729 38.893 41.9138 37.6337C41.7695 38.6247 41.5951 39.9568 41.5951 40.1738C41.5951 40.7623 41.8556 41.1786 42.4051 41.2429C43.3096 41.3479 43.9699 40.7079 44.2522 37.5672C44.2522 37.5672 45.5304 40.6677 48.3683 40.6677C51.2127 40.6677 52.4427 37.785 52.4427 36.9055C52.4427 36.6503 52.3519 36.0335 51.6653 36.0982ZM24.3279 19.5092C24.3279 18.5887 21.9486 16.8458 20.2681 16.6822C20.2879 17.1791 20.2842 17.6902 20.2565 18.2213C20.1905 19.4765 20.0106 20.7432 19.7324 21.9868C22.8203 19.72 24.3279 20.3427 24.3279 19.5092ZM97.3811 40.6782C95.7065 40.587 93.9705 39.2875 92.4262 37.4333C89.6979 38.0917 86.9017 38.222 84.9523 38.2061C83.3348 39.9671 81.7871 41.434 80.6809 42.2678C80.6809 42.2678 79.1903 43.4593 78.4669 42.4474C78.0439 41.768 78.2592 41.0362 79.4219 40.2581C80.1479 39.7701 81.06 38.9836 82.0472 38.0135C80.3788 37.5315 80.7895 35.6967 82.4201 35.9079C82.5387 35.9242 83.0792 36.0053 83.9127 36.0688C85.5297 34.2861 87.1732 32.2335 88.441 30.3531C87.8435 28.7037 87.4951 27.1365 87.4951 25.9075C87.4951 24.2944 88.3651 22.4684 90.136 22.4684C91.8503 22.4684 92.7277 23.98 92.7277 25.5427C92.7277 26.8717 91.9612 28.6702 90.7923 30.6094C91.4622 32.1225 92.3288 33.6935 93.3027 35.0368C94.3528 34.6748 95.3873 34.1987 96.3596 33.585C97.6694 32.7546 98.7967 34.3538 97.421 35.3781C96.5939 35.9274 95.6786 36.3737 94.7198 36.7355C95.7287 37.7668 96.7924 38.4603 97.8148 38.5538C99.5655 38.7119 99.6376 40.8713 97.3811 40.6782ZM80.2961 35.8761C80.091 36.7283 79.0345 39.1877 76.3403 39.2522H76.2814C75.0318 39.2723 73.809 38.6333 72.9083 37.4576C71.6416 38.3051 70.4214 38.7133 69.5444 38.5733C67.6446 38.2681 67.0756 36.678 66.9127 35.641C65.8238 37.0063 64.3758 37.6551 62.9833 37.7892C63.4801 38.818 63.7313 40.0541 63.7313 41.1914C63.7313 42.9662 62.7601 44.7812 61.0023 44.7812C58.5452 44.7812 57.0727 41.1209 56.881 37.5569C56.461 37.7222 55.7678 37.8525 55.4459 37.14C55.0572 36.284 56.0209 35.4938 56.8345 35.0056C56.9765 27.9032 59.9068 22.8788 63.0752 22.8788C64.1404 22.8788 65.4233 23.5661 65.4233 25.6298C65.4233 27.7922 64.2138 30.5617 62.263 33.0339C61.9978 33.3695 61.3812 34.0259 60.6953 34.6992C63.465 36.7785 65.1445 34.5379 65.8366 33.1621C66.0014 32.7935 66.1395 32.4294 66.2447 32.1097C66.6376 30.9241 66.5248 31.2009 66.8948 30.0257C67.4225 28.3511 68.2785 28.4243 68.6657 28.4901C70.045 28.7331 69.2186 30.3539 68.8811 31.7792L68.8655 31.8139C68.347 34.2428 68.5881 36.1704 70.0184 36.4688C70.4751 36.5403 71.2629 36.2573 72.0689 35.6496C70.1834 30.471 73.0627 24.3403 76.0426 23.7494C77.0377 23.5522 78.346 23.9392 78.6756 25.8055C79.0178 27.7638 78.3306 30.4923 76.9021 33.0901C76.5797 33.6796 75.6494 35.0056 74.5473 36.0128C74.5539 36.0224 74.5586 36.032 74.558 36.0335C75.3932 37.1964 76.4494 37.1682 76.4494 37.1682C78.0144 37.1588 78.4861 35.8874 78.6788 35.3613C78.9001 34.7577 79.3545 34.5578 79.8351 34.7196C80.3581 34.8973 80.3961 35.4665 80.2961 35.8761ZM69.1964 25.092C68.5325 25.092 67.9945 25.6597 67.9945 26.3656C67.9945 27.0681 68.5325 27.6386 69.1964 27.6386C69.8593 27.6386 70.3949 27.0681 70.3949 26.3656C70.3949 25.6597 69.8593 25.092 69.1964 25.092ZM82.7212 33.0901C84.2534 33.0901 84.8474 32.4554 84.8474 31.8028C84.8474 30.9647 83.8999 30.5607 82.7227 30.5724C81.5184 30.5856 80.6622 31.0584 80.6622 31.8139C80.6622 32.4294 81.189 33.0901 82.7212 33.0901ZM53.5525 33.0953C55.0891 33.0953 55.6887 32.4571 55.6887 31.8028C55.6887 30.9604 54.7371 30.556 53.5525 30.5679C52.3436 30.5813 51.4854 31.0564 51.4854 31.8139C51.4854 32.433 52.0154 33.0953 53.5525 33.0953ZM30.7481 26.3642C30.0492 26.3642 29.4839 26.9633 29.4839 27.7053C29.4839 28.4442 30.0492 29.0432 30.7481 29.0432C31.4442 29.0432 32.0108 28.4442 32.0108 27.7053C32.0108 26.9633 31.4442 26.3642 30.7481 26.3642ZM4.321 7.71019C3.74715 8.42672 3.92521 9.59023 4.96714 10.5336C6.0084 11.4797 7.45455 11.7861 8.03064 11.0707C8.60658 10.3548 8.09311 8.88588 7.05225 7.94234C6.01075 6.99667 4.89967 6.99474 4.321 7.71019ZM8.44234 2.5912C7.32295 3.13579 6.92541 4.75741 7.74938 6.66478C8.57202 8.57258 10.2532 9.9234 11.3717 9.382C12.4919 8.83677 12.6263 6.60114 11.803 4.69292C10.9794 2.78725 9.56147 2.04831 8.44234 2.5912ZM16.9677 0.224438C15.4803 -0.120686 13.9568 1.1635 13.4417 3.68509C12.9238 6.20561 13.6447 8.85556 15.1326 9.19727C16.6189 9.54047 18.3132 7.44858 18.8283 4.92741C19.3451 2.40646 18.4556 0.565506 16.9677 0.224438ZM27.71 4.32387C26.5744 2.70396 24.1166 2.60508 21.6335 4.56328C19.1504 6.52212 17.7344 9.67502 18.8696 11.299C20.0052 12.9189 23.2616 12.3944 25.7467 10.4353C28.2287 8.47626 28.8447 5.94762 27.71 4.32387ZM15.7346 16.8801C15.7067 18.1964 14.1939 19.8024 13.4714 18.5654C13.0777 17.6184 14.0676 15.8954 14.9842 15.8661C15.7231 15.8661 15.7406 16.566 15.7346 16.8801Z" fill="#A0A0B9"/>
</svg>
