<svg width="100" height="26" viewBox="0 0 100 26" fill="none" xmlns="http://www.w3.org/2000/svg">
<path fill-rule="evenodd" clip-rule="evenodd" d="M32.4168 17.8904H27.7695V7.24219H32.4168C35.7643 7.24219 37.4406 8.92043 37.4406 12.2757C37.4394 16.018 35.7643 17.8904 32.4168 17.8904ZM29.7552 16.1763H32.1161C34.3403 16.1763 35.4512 14.8765 35.4512 12.2744C35.4512 10.0595 34.3391 8.95134 32.1161 8.95134H29.7552V16.1763Z" fill="#A0A0B9"/>
<path fill-rule="evenodd" clip-rule="evenodd" d="M39.5208 17.8904H37.4805L42.0321 7.24219H44.1681L48.8166 17.8904H46.6806L45.3311 14.9866H41.8979L42.5801 13.2737H44.8068L43.0522 9.27413L39.5208 17.8904Z" fill="#A0A0B9"/>
<path fill-rule="evenodd" clip-rule="evenodd" d="M47.6953 7.24219H55.8293V8.95382H52.7564V17.8904H50.7707V8.95382H47.6953V7.24219Z" fill="#A0A0B9"/>
<path fill-rule="evenodd" clip-rule="evenodd" d="M56.8489 17.8904H54.8086L59.3602 7.24219H61.4962L66.1447 17.8904H64.0062L62.6568 14.9866H59.2235L59.9057 13.2737H62.1324L60.3791 9.27413L56.8489 17.8904Z" fill="#A0A0B9"/>
<path fill-rule="evenodd" clip-rule="evenodd" d="M72.1121 17.8904H67.4648V7.24219H72.1121C75.4621 7.24219 77.1359 8.92043 77.1359 12.2757C77.1359 16.018 75.4621 17.8904 72.1121 17.8904ZM69.4517 16.1763H71.8127C74.0356 16.1763 75.1503 14.8765 75.1503 12.2744C75.1503 10.0595 74.0369 8.95134 71.8127 8.95134H69.4517V16.1763Z" fill="#A0A0B9"/>
<path fill-rule="evenodd" clip-rule="evenodd" d="M78.4805 12.5797C78.4805 8.96845 80.276 7.16406 83.8646 7.16406C87.3985 7.16406 89.163 8.96845 89.163 12.5797C89.163 16.1699 87.3973 17.9656 83.8646 17.9656C80.4351 17.9656 78.6408 16.1699 78.4805 12.5797ZM83.8646 16.2491C86.0217 16.2491 87.1015 15.0111 87.1015 12.5327C87.1015 10.0939 86.0217 8.87322 83.8646 8.87322C81.6503 8.87322 80.5432 10.0939 80.5432 12.5327C80.5432 15.0111 81.6503 16.2491 83.8646 16.2491Z" fill="#A0A0B9"/>
<path fill-rule="evenodd" clip-rule="evenodd" d="M97.4544 13.5802V16.0734C96.9959 16.1922 96.5858 16.2515 96.2243 16.2515C93.795 16.2515 92.5822 14.9728 92.5822 12.4164C92.5822 10.0555 93.8695 8.87693 96.4429 8.87693C97.5178 8.87693 98.5168 9.07604 99.4413 9.47303V7.68472C98.5168 7.33844 97.4668 7.16406 96.2926 7.16406C92.4443 7.16406 90.5195 8.91403 90.5195 12.4164C90.5195 16.1143 92.4107 17.9656 96.1944 17.9656C97.4954 17.9656 98.5765 17.7777 99.4413 17.3992V11.8278H96.2329L95.562 13.579L97.4544 13.5802Z" fill="#A0A0B9"/>
<path fill-rule="evenodd" clip-rule="evenodd" d="M19.7412 17.829L17.6449 16.4537L15.8966 19.3601L13.8637 18.7689L12.0732 21.4885L12.1651 22.3443L21.8983 20.5597L21.3329 14.5071L19.7412 17.829ZM10.6641 15.2207L12.226 15.0068C12.4783 15.1193 12.6547 15.1626 12.9579 15.2393C13.4301 15.3617 13.9756 15.4792 14.7845 15.0736C14.9721 14.9808 15.3648 14.6234 15.5226 14.4206L21.9207 13.2655L22.573 21.1273L11.6122 23.0937L10.6641 15.2207ZM22.5482 12.3874L21.917 12.5074L20.7042 0.03125L0.03125 2.4169L2.57856 22.9874L4.99788 22.6374C4.80527 22.3628 4.50333 22.0302 3.99014 21.6047C3.27689 21.016 3.52914 20.0143 3.95037 19.3823C4.50581 18.315 7.37246 16.9571 7.20968 15.2504C7.15128 14.6296 7.05187 13.822 6.47283 13.2679C6.4517 13.498 6.49022 13.7193 6.49022 13.7193C6.49022 13.7193 6.25289 13.4176 6.1336 13.0058C6.01556 12.8475 5.9236 12.798 5.7981 12.5865C5.70864 12.8301 5.72106 13.1133 5.72106 13.1133C5.72106 13.1133 5.52722 12.6558 5.49491 12.2699C5.37935 12.443 5.35077 12.7708 5.35077 12.7708C5.35077 12.7708 5.09853 12.0498 5.15568 11.6614C5.04012 11.3238 4.69841 10.6535 4.79533 9.12985C5.42657 9.57013 6.81578 9.465 7.35631 8.67103C7.53648 8.4076 7.6595 7.6903 7.26684 6.27672C7.0146 5.3702 6.39082 4.01969 6.14727 3.50645L6.11869 3.52748C6.24668 3.94054 6.51135 4.80502 6.61324 5.2255C6.92016 6.4981 7.00217 6.94084 6.85803 7.52705C6.73501 8.03658 6.44176 8.3705 5.69621 8.74399C4.95066 9.11872 3.96156 8.20725 3.89819 8.15778C3.17376 7.58394 2.61335 6.6465 2.55122 6.19139C2.4866 5.69299 2.8395 5.3937 3.01843 4.98681C2.7637 5.05978 2.47915 5.1884 2.47915 5.1884C2.47915 5.1884 2.81838 4.83841 3.23713 4.53665C3.41109 4.42287 3.51174 4.3499 3.6944 4.19902C3.42973 4.19531 3.21476 4.20149 3.21476 4.20149C3.21476 4.20149 3.65588 3.96404 4.11315 3.79214C3.7789 3.7773 3.45831 3.78966 3.45831 3.78966C3.45831 3.78966 4.44244 3.35186 5.21906 3.03031C5.75337 2.81265 6.27526 2.87696 6.56851 3.29868C6.95371 3.8515 7.35755 4.15202 8.21494 4.33877C8.74179 4.10627 8.90084 3.98754 9.5619 3.80821C10.1434 3.1713 10.6007 3.08844 10.6007 3.08844C10.6007 3.08844 10.3746 3.29497 10.3137 3.62023C10.6442 3.36176 11.0058 3.14533 11.0058 3.14533C11.0058 3.14533 10.8654 3.31723 10.7349 3.59055L10.7647 3.63507C11.1499 3.40504 11.6022 3.22448 11.6022 3.22448C11.6022 3.22448 11.473 3.38773 11.3214 3.59797C11.6122 3.5955 12.2012 3.61034 12.4286 3.63631C13.778 3.66599 14.0576 2.20171 14.5757 2.01867C15.2244 1.78864 15.5139 1.64889 16.6186 2.72855C17.5667 3.6561 18.3072 5.31455 17.9394 5.6868C17.6313 5.99475 17.0224 5.56684 16.3489 4.72958C15.9923 4.28683 15.7239 3.76369 15.5972 3.09833C15.4903 2.53686 15.0765 2.2116 15.0765 2.2116C15.0765 2.2116 15.3163 2.74463 15.3163 3.21459C15.3163 3.47182 15.3486 4.43152 15.7624 4.9695C15.7214 5.04865 15.7028 5.35907 15.6568 5.41843C15.1759 4.83964 14.1421 4.42534 13.9743 4.30291C14.5447 4.76791 15.8556 5.83645 16.3589 6.86046C16.8348 7.82881 16.5539 8.71678 16.795 8.94681C16.8634 9.01236 17.8189 10.1971 18.0028 10.7932C18.3234 11.8309 18.0214 12.9217 17.6027 13.5981L16.4309 13.7799C16.2595 13.7329 16.1439 13.7082 15.9898 13.6204C16.0743 13.4708 16.2433 13.0985 16.2445 13.0218L16.1787 12.9068C15.8134 13.4213 15.2033 13.9209 14.695 14.2079C14.0303 14.5826 13.2648 14.5245 12.7665 14.3711C11.3512 13.937 10.013 12.9847 9.69113 12.7349C9.69113 12.7349 9.68119 12.934 9.74208 12.9798C10.0987 13.3805 10.9163 14.1052 11.7066 14.6098L10.0229 14.7941L10.8194 20.9641C10.4665 21.0148 10.4118 21.0395 10.0254 21.0939C9.68492 19.8968 9.0338 19.1139 8.3218 18.6588C7.69429 18.2569 6.82821 18.1666 5.99816 18.3299L5.94473 18.3917C6.52129 18.3323 7.20223 18.4152 7.90056 18.8555C8.58647 19.2871 9.13942 20.4026 9.34321 21.0742C9.60415 21.9324 9.78433 22.8501 9.08226 23.8234C8.58274 24.5147 7.12643 24.8969 5.94846 24.0708C6.26283 24.5741 6.6878 24.9859 7.25939 25.0626C8.10932 25.1776 8.91576 25.0304 9.46995 24.464C9.94338 23.9792 10.1956 22.9651 10.1285 21.8978L10.8778 21.7902L11.1487 23.7059L23.5597 22.2181L22.5482 12.3874ZM14.997 7.18324C14.9622 7.26239 14.9075 7.3131 14.9895 7.5691L14.9945 7.58394L15.0069 7.61733L15.0405 7.69401C15.1883 7.9933 15.3499 8.27651 15.6195 8.42121C15.6891 8.41008 15.7624 8.40142 15.837 8.39771C16.0905 8.38658 16.2508 8.42615 16.3526 8.48181C16.3613 8.4311 16.3638 8.35813 16.3576 8.2493C16.3377 7.86963 16.4334 7.22405 15.7003 6.88395C15.4232 6.75657 15.0355 6.79491 14.9063 6.95568C14.9299 6.95816 14.951 6.9631 14.9672 6.96929C15.1647 7.03607 15.033 7.10286 14.997 7.18324ZM17.0522 10.7265C16.9565 10.6733 16.5067 10.6943 16.1911 10.7314C15.5897 10.8019 14.9398 11.0097 14.7969 11.1197C14.5385 11.3189 14.6553 11.6664 14.8466 11.8086C15.3834 12.2068 15.8531 12.4752 16.3489 12.4096C16.6534 12.3701 16.9218 11.8902 17.1119 11.4537C17.2436 11.1544 17.2436 10.8316 17.0522 10.7265ZM11.7252 7.6532C11.8955 7.49242 10.8803 7.28218 10.0925 7.81645C9.5122 8.21096 9.49356 9.05688 10.049 9.5355C10.1049 9.58249 10.1509 9.61712 10.1931 9.64433C10.3559 9.56765 10.5411 9.49098 10.7535 9.42296C11.1139 9.3067 11.4121 9.2461 11.6581 9.21519C11.7762 9.08409 11.9129 8.85406 11.8781 8.43728C11.8321 7.86963 11.4009 7.95991 11.7252 7.6532Z" fill="#A0A0B9"/>
</svg>
