<svg width="100" height="31" viewBox="0 0 100 31" fill="none" xmlns="http://www.w3.org/2000/svg">
<path d="M0.304688 22.1818V1.28906H3.98034V22.1818H0.304688Z" fill="#A0A0B9"/>
<path d="M13.388 7.02734C8.6753 7.02734 5.41406 10.6453 5.41406 14.7863C5.41406 19.408 8.96191 22.5919 13.4246 22.5919C17.6599 22.5919 21.3352 19.4666 21.3352 14.7763C21.3352 10.8323 18.2897 7.02734 13.388 7.02734ZM13.3447 10.5678C15.811 10.5678 17.6263 12.4846 17.6263 14.7996C17.6263 17.2542 15.6248 19.0448 13.4113 19.0448C10.7957 19.0448 9.14965 16.9749 9.14965 14.8063C9.14965 12.4292 11.0081 10.5678 13.3447 10.5678Z" fill="#A0A0B9"/>
<path d="M30.5716 7.02734C25.8589 7.02734 22.5977 10.6453 22.5977 14.7863C22.5977 19.408 26.1455 22.5919 30.6082 22.5919C34.8435 22.5919 38.5188 19.4666 38.5188 14.7763C38.5188 12.0144 37.3209 10.7889 37.3209 10.7889L38.3397 10.4401V7.46146H33.1192C33.1192 7.46146 31.9875 7.02734 30.5716 7.02734ZM30.5283 10.5678C32.9946 10.5678 34.8099 12.4846 34.8099 14.7996C34.8099 17.2542 32.8084 19.0448 30.5949 19.0448C27.9793 19.0448 26.3332 16.9749 26.3332 14.8063C26.3332 12.4292 28.1917 10.5678 30.5283 10.5678Z" fill="#A0A0B9"/>
<path d="M34.7825 23.2031C34.7825 25.6577 32.7811 27.4616 30.5675 27.4616C27.952 27.4616 26.2992 25.3717 26.2992 23.2031H22.5703C22.5703 27.8248 26.1182 31.0087 30.5808 31.0087C34.8162 31.0087 38.4915 27.8934 38.4915 23.2031H34.7825Z" fill="#A0A0B9"/>
<path d="M39.9922 22.1837V7.46094H43.6678V22.1837H39.9922Z" fill="#A0A0B9"/>
<path d="M47.2366 22.1814V10.7563H45.2656V7.45858H47.2366V2.9375H50.9123V7.45858H52.9366V10.7563H50.9123V22.1814H47.2366Z" fill="#A0A0B9"/>
<path d="M44.2547 3.27796C44.2547 4.62018 43.165 5.70826 41.8207 5.70826C40.4765 5.70826 39.3867 4.62018 39.3867 3.27796C39.3867 1.93574 40.4765 0.847656 41.8207 0.847656C43.165 0.847656 44.2547 1.93574 44.2547 3.27796Z" fill="#A0A0B9"/>
<path d="M61.1976 7.01562C56.4626 7.01562 53.4102 10.6354 53.4102 14.9176C53.4102 19.3427 56.4728 22.6001 61.2742 22.6001C65.7531 22.6001 67.9563 19.8076 67.9563 19.8076L65.4992 17.351C65.4992 17.351 63.644 19.3489 61.3208 19.3489C59.3842 19.3489 57.8358 18.2696 57.2956 16.2905H68.7487V15.2799C68.7487 11.2475 66.4112 7.01562 61.1976 7.01562ZM61.0811 10.2469C62.7743 10.2469 64.506 11.1514 64.8933 13.3119H57.1957C57.5006 11.7932 58.8312 10.2469 61.0811 10.2469Z" fill="#A0A0B9"/>
<path d="M77.9448 22.6008C73.1964 22.6008 69.9609 18.9898 69.9609 14.7322C69.9609 10.3383 73.6176 7.01172 77.9296 7.01172C82.098 7.01172 84.2316 9.94989 84.2316 9.94989L81.6676 12.4985C81.6676 12.4985 80.1823 10.5823 77.9121 10.5823C75.3961 10.5823 73.6757 12.5041 73.6757 14.7885C73.6757 17.2006 75.5057 19.0512 77.8838 19.0512C80.1905 19.0512 81.664 17.1381 81.664 17.1381L84.2537 19.6853C84.2537 19.6853 82.1408 22.6008 77.9448 22.6008Z" fill="#A0A0B9"/>
<path d="M85.5898 22.1948V1.23828H89.2655V8.93782C89.2655 8.93782 90.6729 7.01456 93.7345 7.01456C97.5833 7.01456 99.813 9.87129 99.813 13.525V22.1948H96.1374V14.0797C96.1374 11.6251 94.6068 10.6067 92.9113 10.6067C90.9794 10.6067 89.2655 11.7044 89.2655 14.2696V22.1948H85.5898Z" fill="#A0A0B9"/>
</svg>
