<svg width="100" height="22" viewBox="0 0 100 22" fill="none" xmlns="http://www.w3.org/2000/svg">
<path d="M35.0435 5.28906H30.6484C30.2488 5.28906 29.9261 5.60972 29.9261 6.00673V6.98398C29.9338 7.24357 30.1489 7.44971 30.4102 7.44971H31.1324C31.1555 7.44971 31.1709 7.45734 31.1862 7.48025C31.2016 7.50315 31.2093 7.53369 31.2016 7.55659L29.4804 12.6795C29.4651 12.7101 29.4343 12.733 29.3959 12.7253C29.3652 12.7253 29.3344 12.7024 29.3268 12.6795L26.7527 5.73951V5.73188C26.6836 5.56391 26.5222 5.44176 26.3378 5.43412H24.7857C24.6013 5.44939 24.4399 5.56391 24.3631 5.73188V5.73951L21.789 12.6795C21.7813 12.7101 21.7506 12.733 21.7198 12.733C21.6814 12.733 21.6507 12.7177 21.6353 12.6872L19.9142 7.55659C19.9065 7.53369 19.9142 7.50315 19.9295 7.48025C19.9449 7.46498 19.9603 7.44971 19.9833 7.44971H20.7056C20.9668 7.44971 21.182 7.24357 21.1897 6.98398V6.00673C21.1897 5.60972 20.8669 5.28906 20.4674 5.28906H16.0723C15.9186 5.28906 15.7726 5.36541 15.6804 5.48757C15.5959 5.60209 15.5652 5.75478 15.6113 5.89221C15.6727 6.06781 15.7496 6.28158 15.8187 6.50299C15.8879 6.7244 15.9647 6.93054 16.0339 7.12141C16.0953 7.31228 16.2721 7.44207 16.4795 7.44971H17.2172C17.2556 7.44971 17.294 7.47261 17.3017 7.51078L20.721 17.4894C20.7824 17.6803 20.9592 17.8177 21.1666 17.8177H22.227C22.4268 17.8177 22.6035 17.6956 22.6726 17.5124C23.6101 14.8096 25.408 9.66379 25.4772 9.48819C25.4849 9.45002 25.5233 9.41948 25.5617 9.41948C25.6001 9.41948 25.6386 9.44238 25.6462 9.48056C25.7154 9.66379 27.5134 14.8096 28.4508 17.5047C28.52 17.688 28.6967 17.8101 28.8965 17.8177H29.9568C30.1643 17.8177 30.341 17.6803 30.4025 17.4894L33.8141 7.51078C33.8448 7.44971 33.8832 7.44971 33.8986 7.44971H34.6362C34.836 7.44971 35.0127 7.31992 35.0819 7.12905C35.1511 6.93818 35.2202 6.71677 35.297 6.51063C35.3739 6.30449 35.4507 6.07545 35.5122 5.89985C35.5583 5.76242 35.5276 5.60972 35.443 5.4952C35.3431 5.36541 35.2048 5.28906 35.0435 5.28906ZM86.4939 15.8022H85.6948C85.5719 15.8022 85.472 15.7029 85.472 15.5731V5.73951C85.472 5.56391 85.326 5.41885 85.1416 5.42649H82.8057C82.7058 5.42649 82.6136 5.4723 82.5522 5.54865L81.584 6.74731C81.4687 6.88473 81.4995 7.09087 81.6378 7.20539C81.6916 7.2512 81.7607 7.27411 81.8222 7.27411H82.1219C82.2448 7.28174 82.3447 7.38099 82.3524 7.50315V15.5578C82.3524 15.6189 82.3293 15.6876 82.2909 15.7411C82.0373 16.0694 81.4764 16.7641 81.1998 17.1077C81.0769 17.2451 81.0922 17.4513 81.2305 17.5658C81.292 17.6192 81.3612 17.6421 81.438 17.6498H85.5104C85.5949 17.6574 85.6795 17.6269 85.7409 17.5582L86.6937 16.3748C86.9165 16.1152 86.7629 15.8022 86.4939 15.8022Z" fill="#A0A0B9"/>
<path d="M83.8964 4.09865C84.864 4.09865 85.6483 3.3193 85.6483 2.35792C85.6483 1.39654 84.864 0.617188 83.8964 0.617188C82.9289 0.617188 82.1445 1.39654 82.1445 2.35792C82.1445 3.3193 82.9289 4.09865 83.8964 4.09865Z" fill="#A0A0B9"/>
<path d="M99.3082 6.44548C99.3082 6.27752 99.216 6.11719 98.9932 6.11719H98.5859V7.17842H98.7396V6.78905H98.8779L99.1469 7.17842H99.3236L99.0393 6.77378C99.2391 6.75851 99.3082 6.59818 99.3082 6.44548ZM98.7396 6.63635V6.24698H99.0085C99.1084 6.25461 99.1776 6.33096 99.1776 6.43021V6.44548C99.1853 6.54474 99.1161 6.62872 99.0239 6.63635H98.7396Z" fill="#A0A0B9"/>
<path d="M98.9183 5.72609C98.4112 5.72609 97.9963 6.13837 97.9963 6.64226C97.9963 7.14616 98.4112 7.55843 98.9183 7.55843C99.4255 7.55843 99.8404 7.14616 99.8404 6.64226C99.8404 6.13837 99.4332 5.72609 98.9183 5.72609ZM98.9183 7.42101C98.4881 7.42101 98.1346 7.07744 98.1346 6.6499V6.64226C98.1269 6.22235 98.465 5.87115 98.8876 5.86351H98.9183C99.3486 5.86351 99.7021 6.21471 99.7021 6.64226C99.7021 7.06981 99.3563 7.42101 98.9183 7.42101ZM46.5228 15.8498C45.8466 15.8803 45.5085 15.5673 45.5085 14.7962V9.27626C45.5085 6.86367 43.4723 5.32908 41.1749 5.32908C37.6096 5.32908 36.3265 7.00873 36.1805 8.88689C36.1728 9.07012 36.3111 9.22282 36.4878 9.23045H38.2628C38.4318 9.22282 38.5701 9.09303 38.5778 8.9327C38.67 7.95544 39.3308 7.23777 40.4373 7.23777C41.659 7.23777 42.3966 7.85619 42.3966 9.24572V10.4444H41.7589C39.569 10.4444 38.063 10.7269 37.0487 11.3606C36.0345 11.9942 35.5273 13.1624 35.5273 14.529C35.5273 15.5368 35.8731 16.3613 36.5723 17.0179C37.2716 17.6745 38.086 17.9646 39.1541 17.9646C39.7918 17.9646 40.4219 17.8196 40.9982 17.5447C41.5668 17.2928 42.0893 16.9569 42.5503 16.5522C42.6425 16.4682 42.7885 16.4682 42.873 16.5598C42.8884 16.5751 42.9038 16.5904 42.9114 16.6133C43.4109 17.4837 43.9564 17.7661 44.9937 17.7661C45.9312 17.7661 46.3845 16.8958 46.7917 16.369C46.9454 16.1628 46.7764 15.8345 46.5228 15.8498ZM42.412 14.9642H42.3966C42.3966 15.0405 42.2737 15.1474 42.2276 15.1932C41.9433 15.4299 41.6282 15.636 41.2902 15.7964C40.9828 15.9262 40.6524 15.9872 40.322 15.9796C39.8379 15.9796 39.3539 15.7964 39.0388 15.4528C38.7161 15.1016 38.5471 14.6359 38.5547 14.1625C38.5547 13.4449 38.8237 12.9639 39.3692 12.605C39.9148 12.2462 40.8061 12.0782 41.8741 12.0782H42.4043L42.412 14.9642ZM79.9241 15.8498C79.2479 15.8803 78.9098 15.5673 78.9098 14.7962V9.27626C78.9098 6.86367 76.8736 5.32908 74.5762 5.32908C71.0109 5.32908 69.7277 7.00873 69.5818 8.88689C69.5741 9.07012 69.7124 9.22282 69.8891 9.23045H71.6641C71.8331 9.22282 71.9714 9.09303 71.9791 8.9327C72.0713 7.95544 72.7321 7.23777 73.8386 7.23777C75.0603 7.23777 75.7979 7.85619 75.7979 9.24572V10.4444H75.1678C72.978 10.4444 71.4643 10.7269 70.4577 11.3606C69.4435 11.9942 68.9286 13.1624 68.9286 14.529C68.9286 15.5368 69.2744 16.3613 69.9736 17.0179C70.6728 17.6745 71.4873 17.9646 72.5554 17.9646C73.1931 17.9646 73.8232 17.8196 74.3995 17.5447C74.9681 17.2928 75.4906 16.9569 75.9516 16.5522C76.0438 16.4682 76.1898 16.4682 76.2743 16.5598C76.2897 16.5751 76.305 16.5904 76.3127 16.6133C76.8122 17.4837 77.3577 17.7661 78.395 17.7661C79.3324 17.7661 79.7858 16.8958 80.193 16.369C80.3467 16.1628 80.1777 15.8345 79.9241 15.8498ZM75.821 14.9642H75.8056C75.8056 15.0405 75.6827 15.1474 75.6366 15.1932C75.3523 15.4299 75.0372 15.636 74.6991 15.7964C74.3918 15.9262 74.0614 15.9872 73.731 15.9796C73.2469 15.9796 72.7628 15.7964 72.4478 15.4528C72.1251 15.1016 71.956 14.6359 71.9637 14.1625C71.9637 13.4449 72.2327 12.9639 72.7782 12.605C73.3237 12.2462 74.2151 12.0782 75.2831 12.0782H75.8133V14.9642H75.821ZM96.4826 5.38252C96.3212 5.29854 95.914 5.26037 95.5605 5.26037C94.9919 5.26037 94.5386 5.33671 94.1467 5.50468L94.116 5.51995C93.97 5.58866 93.824 5.66501 93.6934 5.76426C93.1939 6.06965 92.756 6.45139 92.3718 6.89421C92.3718 6.89421 92.2027 7.024 92.172 6.81023V5.70318C92.172 5.52758 92.026 5.38252 91.8493 5.38252H89.5134C89.4212 5.38252 89.329 5.4207 89.2752 5.49704C89.2752 5.49704 88.5376 6.40558 88.2994 6.71861C88.1534 6.90184 88.2456 7.24541 88.553 7.24541H88.8449C88.9679 7.24541 89.0754 7.3523 89.0754 7.47445V15.5673C89.0754 15.6284 89.0601 15.6971 89.0217 15.7506C88.7911 16.033 88.2072 16.766 87.9229 17.1248C87.8153 17.2699 87.8384 17.4684 87.9844 17.5829C88.0381 17.6287 88.1073 17.6516 88.1764 17.6516H93.2247C93.4014 17.6516 93.5474 17.5066 93.5474 17.331V16.117C93.5474 15.9414 93.4014 15.7964 93.2247 15.7964H92.4256C92.2949 15.7964 92.1951 15.6971 92.1951 15.5673V10.8567C92.2873 8.61967 93.6319 7.93254 94.2774 7.73403L94.3696 7.7035L94.3926 7.69586C94.5693 7.65005 94.7461 7.62715 94.9305 7.62715C95.6988 7.62715 95.9831 7.74167 96.4058 7.84856C96.5825 7.89436 96.7285 7.7035 96.7285 7.5279V5.69555C96.7131 5.55049 96.5978 5.43597 96.4826 5.38252ZM69.0285 5.4207H65.3711C65.2481 5.4207 65.1405 5.31381 65.1405 5.19165V3.39748C65.1405 2.52711 65.5939 1.65675 66.5313 1.65675C67.5917 1.65675 67.753 2.54238 67.7991 3.21424C67.8068 3.38221 67.9451 3.51963 68.1142 3.52727H69.6279C69.7969 3.51963 69.9352 3.38221 69.9275 3.20661C69.8968 0.961983 68.4599 0 66.1548 0C64.7487 0 63.8266 0.435183 63.1351 1.27501C62.4435 2.11483 62.0901 3.05391 62.0901 4.73357V5.18402C62.0901 5.30617 61.9902 5.40543 61.8673 5.40543L55.6204 5.4207C55.4436 5.41306 55.29 5.55049 55.29 5.73372V6.95529C55.29 7.13852 55.4436 7.28358 55.6204 7.28358H56.2889C56.4195 7.28358 56.5194 7.39047 56.5194 7.51263C56.5194 7.54317 56.5117 7.5737 56.504 7.59661C56.504 7.59661 54.7828 11.5743 54.0913 13.1624C54.0375 13.2769 53.9069 13.3303 53.7916 13.2845C53.7378 13.2616 53.6994 13.2158 53.6687 13.1624C52.9618 11.5591 51.2253 7.59661 51.2253 7.59661C51.1792 7.48209 51.2329 7.34466 51.3482 7.29885C51.3713 7.29122 51.402 7.28358 51.4327 7.28358H51.9014C52.0858 7.28358 52.2318 7.13852 52.2318 6.95529V5.74136C52.2318 5.56576 52.0858 5.4207 51.9014 5.42833H46.2462C46.0618 5.42833 45.9158 5.58103 45.9235 5.76426C45.9235 5.8177 45.9388 5.86351 45.9619 5.90932C46.1309 6.20708 46.5074 6.91711 46.615 7.12325C46.6688 7.2225 46.7764 7.28358 46.8839 7.29122H47.975C48.0672 7.29122 48.1518 7.34466 48.1902 7.42864C48.1902 7.42864 52.2088 16.3919 52.3548 16.7049C52.5084 17.1019 52.5084 17.5447 52.3471 17.9494C52.1627 18.6823 50.9256 19.9955 50.2417 19.7588C49.773 19.5985 49.7116 18.751 49.1506 18.6441C49.0431 18.6289 48.9432 18.6365 48.8433 18.6823C48.7434 18.7205 47.829 19.8886 47.6293 20.0947C47.5294 20.2245 47.5294 20.4001 47.6293 20.5299C48.1287 21.0415 48.9662 21.7286 50.1803 21.7744C51.6709 21.8355 53.1385 21.637 54.4985 19.0717C54.4985 19.0717 58.8245 8.56623 59.3393 7.43628C59.3854 7.35993 59.4622 7.31412 59.5545 7.31412H61.8365C61.9595 7.31412 62.067 7.41337 62.067 7.53553V15.6055C62.067 15.6742 62.044 15.7353 62.0056 15.7887C61.7366 16.1323 61.1911 16.8118 60.9145 17.1554C60.7992 17.2928 60.8223 17.4989 60.9606 17.6058C61.022 17.6516 61.0912 17.6822 61.168 17.6745H66.2701C66.4545 17.6745 66.6005 17.5295 66.6005 17.3462V16.1476C66.6005 15.9643 66.4545 15.8193 66.2701 15.8193H65.3941C65.2712 15.8193 65.1713 15.72 65.1713 15.5902V7.50499C65.1713 7.38283 65.2712 7.28358 65.3941 7.28358H68.0911C68.191 7.28358 68.2832 7.23777 68.3447 7.16143C68.5752 6.86367 69.0362 6.26052 69.2821 5.9475C69.3897 5.80243 69.3666 5.60393 69.2206 5.48941C69.1668 5.45123 69.0977 5.4207 69.0285 5.4207Z" fill="#A0A0B9"/>
<path d="M13.9574 9.30747L13.0738 6.00924C13.0431 5.89472 12.9586 5.81074 12.8433 5.7802L9.52392 4.9022C9.41635 4.87166 9.29341 4.9022 9.21657 4.98618L6.98828 7.20027L11.6523 11.8346L13.8806 9.6205C13.9574 9.53651 13.9882 9.41436 13.9574 9.30747Z" fill="#A0A0B9"/>
<path d="M0.0113156 14.3552L0.894948 17.6535C0.925683 17.768 1.0102 17.852 1.12546 17.8825L4.45253 18.7605C4.5601 18.791 4.68304 18.7605 4.75988 18.6765L6.98817 16.4624L2.33181 11.8281L0.103521 14.0422C0.0189993 14.1262 -0.0117357 14.2407 0.0113156 14.3552Z" fill="#A0A0B9"/>
<path d="M4.44518 4.9022L1.12579 5.7802C1.01054 5.81074 0.926016 5.89472 0.895281 6.00924L0.0116486 9.30747C-0.0190864 9.41436 0.0116486 9.53651 0.0961699 9.61286L2.32446 11.8269L6.98082 7.20027L4.75253 4.98618C4.67569 4.9022 4.56043 4.87166 4.44518 4.9022Z" fill="#A0A0B9"/>
<path d="M13.8422 14.0117L11.6446 11.8281L6.98828 16.4548L9.18584 18.6384C9.28572 18.7376 9.43172 18.7758 9.57002 18.7452L12.8049 17.8901C12.9432 17.852 13.0508 17.7451 13.0892 17.6077L13.9498 14.3934C13.9805 14.256 13.9421 14.1109 13.8422 14.0117Z" fill="#A0A0B9"/>
<path d="M6.98839 7.19922L2.33203 11.8259L6.98839 16.4526L11.6524 11.8259L6.98839 7.19922Z" fill="#A0A0B9"/>
<path d="M13.9574 9.30747L13.0738 6.00924C13.0431 5.89472 12.9586 5.81074 12.8433 5.7802L9.52392 4.9022C9.41635 4.87166 9.29341 4.9022 9.21657 4.98618L6.98828 7.20027L11.6523 11.8346L13.8806 9.6205C13.9574 9.53651 13.9882 9.41436 13.9574 9.30747Z" fill="#A0A0B9"/>
<path d="M0.0113156 14.3552L0.894948 17.6535C0.925683 17.768 1.0102 17.852 1.12546 17.8825L4.45253 18.7605C4.5601 18.791 4.68304 18.7605 4.75988 18.6765L6.98817 16.4624L2.33181 11.8281L0.103521 14.0422C0.0189993 14.1262 -0.0117357 14.2407 0.0113156 14.3552Z" fill="#A0A0B9"/>
<path d="M4.44518 4.9022L1.12579 5.7802C1.01054 5.81074 0.926016 5.89472 0.895281 6.00924L0.0116486 9.30747C-0.0190864 9.41436 0.0116486 9.53651 0.0961699 9.61286L2.32446 11.8269L6.98082 7.20027L4.75253 4.98618C4.67569 4.9022 4.56043 4.87166 4.44518 4.9022Z" fill="#A0A0B9"/>
<path d="M13.8422 14.0117L11.6446 11.8281L6.98828 16.4548L9.18584 18.6384C9.28572 18.7376 9.43172 18.7758 9.57002 18.7452L12.8049 17.8901C12.9432 17.852 13.0508 17.7451 13.0892 17.6077L13.9498 14.3934C13.9805 14.256 13.9421 14.1109 13.8422 14.0117Z" fill="#A0A0B9"/>
<path d="M6.98839 7.19922L2.33203 11.8259L6.98839 16.4526L11.6524 11.8259L6.98839 7.19922Z" fill="#A0A0B9"/>
</svg>
