<svg width="100" height="23" viewBox="0 0 100 23" fill="none" xmlns="http://www.w3.org/2000/svg">
<path fill-rule="evenodd" clip-rule="evenodd" d="M12.7101 5.85741C12.8052 5.83256 12.8486 5.86846 12.9049 5.93473C13.2281 6.31761 14.2697 7.65219 14.5531 8.01759C14.5635 8.03052 14.571 8.04542 14.5754 8.06138C14.5798 8.07733 14.5808 8.09401 14.5785 8.11038C14.5761 8.12675 14.5705 8.14248 14.5618 8.15659C14.5532 8.1707 14.5417 8.18291 14.5282 8.19246C12.4285 9.91637 10.0924 12.3545 8.79041 14.1014C8.76271 14.1382 8.7858 14.141 8.80427 14.1327C11.072 13.1055 16.398 11.4663 18.8006 11.007V7.80958L9.40999 0L0 7.80958V11.3043C2.9169 9.48102 9.65653 6.65816 12.7101 5.85741ZM56.3667 1.08699H60.4987V21.6413H56.3667V1.08699ZM53.3057 1.08699H49.1737V21.6422H53.3057V1.08699ZM80.7416 8.19246H76.6594L80.7933 21.6441H84.5948L85.6327 18.2432C86.0445 16.8921 86.7315 14.3693 86.7315 14.3693C86.7331 14.3624 86.737 14.3564 86.7426 14.352C86.7481 14.3477 86.7549 14.3453 86.762 14.3453C86.7758 14.3453 86.7878 14.3545 86.7924 14.3693C86.7924 14.3693 87.4803 16.9408 87.8709 18.2662L88.8894 21.6413H92.6235L96.7278 8.19154H92.9337L91.75 12.2606C91.3886 13.5504 91.0374 14.843 90.6964 16.1383C90.6947 16.1451 90.6908 16.1511 90.6853 16.1555C90.6798 16.1598 90.673 16.1622 90.6659 16.1622C90.6589 16.1622 90.6521 16.1598 90.6465 16.1555C90.641 16.1511 90.6371 16.1451 90.6355 16.1383C90.6355 16.1383 89.9983 13.655 89.5856 12.2606L88.3668 8.19246H85.3511L84.1101 12.2606C83.7213 13.5621 83.039 16.1401 83.039 16.1401C83.0368 16.1464 83.0327 16.1519 83.0272 16.1557C83.0217 16.1595 83.0152 16.1614 83.0085 16.1613C83.002 16.1612 82.9956 16.1592 82.9903 16.1554C82.985 16.1516 82.981 16.1462 82.9789 16.1401C82.9789 16.1401 82.3197 13.609 81.9245 12.2606L80.7416 8.19246ZM62.544 14.9629C62.544 10.8763 65.677 7.84915 69.5098 7.84915C73.3049 7.84915 76.4388 10.8773 76.4388 14.9629C76.4388 19.0614 73.3067 22.0896 69.5098 22.0896C65.6779 22.0896 62.544 19.0614 62.544 14.9657V14.9629ZM72.4738 14.9629C72.4738 12.962 71.1165 11.5998 69.5098 11.5998C67.8653 11.5998 66.5089 12.962 66.5089 14.9629C66.5089 16.9777 67.8653 18.326 69.5098 18.326C71.1165 18.326 72.4738 16.9777 72.4738 14.9629ZM25.2715 2.98853V6.95177H32.5744C32.6039 6.95177 32.615 6.98122 32.6003 7.00699L25.2688 20.1153L25.2558 20.1392C25.0896 20.4595 25.0499 20.5368 25.0499 20.8691V21.6422H39.2752V17.6864H31.3731C31.3668 17.6864 31.3607 17.6845 31.3554 17.6811C31.3502 17.6777 31.3461 17.6728 31.3436 17.667C31.3408 17.6611 31.3396 17.6546 31.3403 17.6481C31.3409 17.6416 31.3433 17.6355 31.3472 17.6302L38.7637 4.3498L38.784 4.30746C38.8357 4.19701 38.8856 4.09393 38.8856 3.81781L38.8874 2.98945L25.2715 2.98853ZM43.9724 1.45515C45.2605 1.45515 46.3251 2.54858 46.3251 3.89512C46.3251 5.24259 45.2605 6.33786 43.9724 6.33786C42.6843 6.33786 41.6206 5.24443 41.6206 3.89697C41.6206 2.5495 42.6843 1.45607 43.9724 1.45607V1.45515ZM41.9068 8.19246H46.038V21.6422H41.9068V8.19246ZM4.86705 19.2566C4.91783 19.3192 5.00555 19.332 5.07019 19.2879C8.55865 17.3974 16.2327 14.9979 18.8006 14.5386V21.7232H0.000923351V14.2588C1.93352 13.1083 7.15422 10.7484 8.99171 10.117C9.02864 10.1041 9.03695 10.1262 9.00556 10.1511C7.24194 11.5289 4.47739 14.7807 3.12281 16.8709C3.06095 16.9685 3.06464 16.9998 3.11358 17.0596L4.86705 19.2566ZM98.87 5.61811C99.2273 5.61811 99.4822 5.88871 99.4822 6.27527C99.4822 6.56796 99.3317 6.79898 99.1027 6.8901L99.4545 7.49756H99.1202L98.7934 6.93244H98.5053V7.49572H98.2117V5.61811H98.87ZM98.5053 6.65632H98.8515C99.0464 6.65632 99.1895 6.49801 99.1895 6.27804C99.1895 6.05714 99.0464 5.89607 98.8525 5.89607H98.5053V6.65632ZM98.7814 4.96647C98.1572 4.96647 97.5948 5.36224 97.3566 5.96786C97.2393 6.26398 97.2084 6.58715 97.2676 6.90003C97.3267 7.2129 97.4735 7.5027 97.6909 7.73595C97.8998 7.96108 98.1738 8.11587 98.4749 8.17887C98.776 8.24186 99.0893 8.20995 99.3714 8.08754C99.9476 7.83627 100.323 7.24445 100.323 6.58821C100.322 5.69266 99.6327 4.96739 98.7814 4.96647ZM98.7814 7.89886C98.2772 7.89886 97.8229 7.57948 97.6299 7.08983C97.5352 6.85061 97.5103 6.58956 97.558 6.33682C97.6057 6.08407 97.7241 5.84992 97.8996 5.66137C98.256 5.28585 98.7924 5.17356 99.2578 5.37697C99.7232 5.57945 100.027 6.05806 100.027 6.58821C100.026 7.31164 99.4693 7.89794 98.7814 7.89886Z" fill="#A0A0B9"/>
</svg>
