<svg width="100" height="38" viewBox="0 0 100 38" fill="none" xmlns="http://www.w3.org/2000/svg">
<path d="M16.2788 23.6662H16.2504L14.6447 28.204H17.8884L16.2788 23.6662ZM19.1497 31.7761L18.3674 29.5457H14.1659L13.3796 31.7761H11.5873L15.3465 21.8584H17.3449L21.0511 31.7761H19.1497ZM34.3673 23.119V21.4611H36.1188V23.119H34.3673ZM34.3876 31.7761V24.2225H36.0986V31.7761H34.3876ZM21.7327 23.119V21.4611H23.4879V23.119H21.7327ZM21.753 31.7761V24.2225H23.4676V31.7761H21.753ZM32.5139 31.7761V21.4733H30.8033V31.7761H32.5139ZM27.0522 28.0905V31.7761H25.3332C25.3332 31.7761 25.3332 26.687 25.3332 26.1641C25.3332 25.625 25.2724 24.5955 25.2521 24.2225C25.2521 24.2225 26.002 24.2225 26.6347 24.2225C26.7847 24.2225 26.8293 24.2874 26.8333 24.4333C26.8333 24.6562 26.8455 25.3696 26.8455 25.3696H26.8861C27.0198 25.0453 27.5069 24.0644 28.9337 24.0644C29.4079 24.0644 29.761 24.2185 29.8218 24.2428C29.8218 24.5671 29.7853 25.2805 29.7691 25.471C29.7569 25.5926 29.7042 25.6331 29.6434 25.6331C29.5867 25.6331 29.5583 25.6209 29.5255 25.6088C29.416 25.5642 29.1688 25.4872 28.8242 25.4872C27.9081 25.4872 27.0522 26.1479 27.0522 28.0905ZM42.6637 31.7761V26.8978C42.6637 25.9655 42.2377 25.398 41.4386 25.398C40.3847 25.398 39.6834 26.5208 39.6834 28.0338V31.7761H37.9718C37.9718 31.7761 37.9718 26.379 37.9718 26.2249C37.9718 25.6169 37.9151 24.7252 37.8867 24.2225C37.8867 24.2225 38.6938 24.2225 39.2653 24.2225C39.4199 24.2225 39.4645 24.2874 39.4645 24.4292C39.4686 24.5873 39.4848 25.3696 39.4848 25.3696H39.5213C39.728 25.0129 40.2549 24.0644 41.8362 24.0644C43.4663 24.0644 44.3743 25.1792 44.3743 26.4276V31.7761H42.6637ZM47.4033 27.2231H50.5791C50.644 26.006 50.0022 25.325 49.0376 25.325C48.0321 25.325 47.4515 26.0547 47.4033 27.2231ZM51.6329 30.1183C51.7304 30.1183 51.7584 30.1993 51.7667 30.2844C51.7953 30.6087 51.8191 31.3383 51.8191 31.5207C51.6329 31.5816 50.713 31.918 49.4755 31.918C47.0707 31.918 45.6237 30.6776 45.6237 27.9973C45.6237 25.698 46.8559 24.0644 49.074 24.0644C51.252 24.0644 52.2856 25.5196 52.2856 27.3285C52.2856 27.5393 52.2653 27.9 52.2249 28.3743H47.383C47.383 29.6632 48.2065 30.5925 49.7225 30.5925C50.5578 30.5925 51.2277 30.2925 51.4912 30.1628C51.5436 30.1385 51.5722 30.1183 51.6329 30.1183ZM55.6508 31.918C57.8813 31.918 58.9475 31.0059 58.9475 29.6511C58.9475 28.3135 57.9991 27.7541 56.9935 27.4217C56.7056 27.3285 56.4249 27.2312 56.1618 27.1461C55.4723 26.918 55.1159 26.6181 55.1159 26.1722C55.1159 25.702 55.5455 25.3737 56.4374 25.3737C57.2286 25.3737 57.8771 25.6939 58.1366 25.8196C58.177 25.8398 58.2175 25.8642 58.2865 25.8642C58.3394 25.8642 58.4043 25.8317 58.4162 25.698C58.4328 25.4467 58.4608 24.9886 58.4608 24.5468C58.2543 24.4495 57.5041 24.0644 56.2952 24.0644C54.4554 24.0644 53.3191 25.0251 53.3191 26.2898C53.3191 27.5149 54.1591 28.0743 55.0832 28.3824C55.2943 28.4553 55.6876 28.585 55.9185 28.662C56.8841 28.9823 57.1559 29.2741 57.1559 29.724C57.1559 30.3128 56.5307 30.6006 55.4521 30.6006C54.5685 30.6006 53.9604 30.2804 53.7176 30.1628C53.6688 30.1426 53.6403 30.1183 53.5702 30.1183C53.4447 30.1183 53.4405 30.2844 53.4405 30.3128C53.4327 30.3939 53.3923 31.1762 53.3923 31.4397C53.5957 31.5248 54.4715 31.918 55.6508 31.918ZM4.30489 11.2873H4.27246L2.6667 15.8248H5.9105L4.30489 11.2873ZM7.17574 19.3969L6.38939 17.1711H2.18802L1.40161 19.3969H-0.390625L3.37264 9.48316H5.36691L9.0732 19.3969H7.17574ZM35.1861 10.7397V9.08531H36.9382V10.7397H35.1861ZM35.2064 19.3969V11.8428H36.918V19.3969H35.2064ZM31.5248 15.7113V19.3969H29.8096C29.8096 19.3969 29.8096 14.3082 29.8096 13.7849C29.8096 13.2458 29.7488 12.2196 29.7245 11.8428C29.7245 11.8428 30.479 11.8428 31.1114 11.8428C31.2614 11.8428 31.306 11.9077 31.306 12.0534C31.31 12.2766 31.3222 12.9904 31.3222 12.9904H31.3627C31.4964 12.6661 31.9828 11.6889 33.4107 11.6889C33.885 11.6889 34.2417 11.8386 34.2984 11.8629C34.2984 12.1872 34.2619 12.9012 34.2457 13.0918C34.2376 13.2134 34.1809 13.2539 34.1201 13.2539C34.0593 13.2539 34.0349 13.2417 34.0025 13.2296C33.8931 13.185 33.6458 13.1079 33.3013 13.1079C32.3842 13.1079 31.5248 13.7687 31.5248 15.7113ZM18.8659 19.3969V14.5636C18.8659 13.6957 18.5011 13.0188 17.6087 13.0188C16.6112 13.0188 16.0315 14.1136 16.0315 15.6464V19.3969H14.32V14.5473C14.32 13.7565 13.9876 13.0188 13.0715 13.0188C12.0575 13.0188 11.4901 14.1136 11.4901 15.7032V19.3969H9.77099C9.77099 19.3969 9.77099 14.6246 9.77099 13.8947C9.77099 13.185 9.70613 12.1793 9.68989 11.8428C9.68989 11.8428 10.5817 11.8428 11.06 11.8428C11.214 11.8428 11.2627 11.8954 11.2708 12.0534C11.2708 12.2561 11.2829 12.9904 11.2829 12.9904H11.3235C11.4288 12.7756 11.9927 11.6848 13.566 11.6848C15.0338 11.6848 15.5938 12.7391 15.7316 13.0634C15.8694 12.7796 16.518 11.6848 17.9978 11.6848C19.5348 11.6848 20.5809 12.5121 20.5809 14.1706V19.3969H18.8659ZM23.6099 14.8435H26.7807C26.8455 13.6268 26.2087 12.9458 25.244 12.9458C24.2341 12.9458 23.6545 13.6755 23.6099 14.8435ZM27.8392 17.7384C27.9325 17.7384 27.9608 17.8235 27.9689 17.9089C27.9973 18.2289 28.0257 18.9591 28.0217 19.1455C27.8392 19.2023 26.9185 19.5388 25.6818 19.5388C23.273 19.5388 21.83 18.2938 21.83 15.618C21.83 13.3228 23.0623 11.6889 25.2805 11.6889C27.4541 11.6889 28.4918 13.1404 28.4918 14.9488C28.4918 15.1634 28.4675 15.5208 28.431 15.995H23.5896C23.5896 17.2885 24.409 18.2127 25.925 18.2127C26.7644 18.2127 27.4299 17.9129 27.6974 17.7832C27.75 17.7587 27.7784 17.7384 27.8392 17.7384ZM49.3417 15.5654C49.3417 15.5654 49.0823 15.5654 49.0501 15.5654C46.8964 15.5654 46.4751 16.3153 46.4751 17.0739C46.4751 17.6979 46.8844 18.2856 47.6876 18.2856C48.758 18.2856 49.3417 17.252 49.3417 16.1653V15.5654ZM49.7552 19.3969C49.6172 19.3969 49.5041 19.3483 49.4875 19.1496C49.4714 18.9064 49.4351 18.4281 49.4351 18.4281H49.4148C49.3131 18.5659 48.689 19.5388 47.1153 19.5388C45.6154 19.5388 44.7556 18.3835 44.7556 17.1101C44.7556 15.3505 46.4668 14.4624 49.0055 14.4624C49.0257 14.4624 49.3417 14.4624 49.3417 14.4624V14.1866C49.3417 13.3957 48.7782 12.9701 47.7281 12.9701C46.7828 12.9701 45.9967 13.3025 45.6927 13.4606C45.6724 13.4687 45.6154 13.5011 45.563 13.5011C45.4856 13.5011 45.4374 13.4525 45.4332 13.3593C45.4208 13.0755 45.3886 12.5324 45.3845 12.1872C45.6927 12.0656 46.722 11.6848 47.8495 11.6848C50.0914 11.6848 51.0575 12.731 51.0575 14.3895V17.3371C51.0575 18.4119 51.1587 19.1131 51.1913 19.3969C51.1913 19.3969 49.8766 19.3969 49.7552 19.3969ZM43.8311 17.7384C43.8757 17.7384 43.9405 17.7668 43.9525 17.9005C43.9852 18.2613 44.0012 18.8496 44.0012 19.0321C43.6609 19.2023 42.9189 19.5388 42.0065 19.5388C39.7199 19.5388 38.3164 18.2127 38.3164 15.614C38.3164 13.1809 39.5659 11.6889 42.0065 11.6889C42.8178 11.6889 43.5633 11.9683 44.0012 12.1953C44.0012 12.4634 43.9769 13.0715 43.9525 13.3309C43.9447 13.4363 43.8918 13.489 43.8311 13.489C43.7621 13.489 43.7377 13.4728 43.6972 13.4525C43.1462 13.1809 42.6273 13.0512 42.1604 13.0512C40.7049 13.0512 40.1049 14.0044 40.1049 15.614C40.1049 17.0534 40.5833 18.1764 42.1604 18.1764C42.7607 18.1764 43.3122 17.9613 43.6526 17.7992C43.7418 17.7548 43.7579 17.7384 43.8311 17.7384ZM57.2327 19.3969V14.5192C57.2327 13.5863 56.8073 13.0188 56.0119 13.0188C54.9576 13.0188 54.2567 14.142 54.2567 15.6586V19.3969H52.5409C52.5409 19.3969 52.5409 14.0003 52.5409 13.8501C52.5409 13.2377 52.4843 12.35 52.4599 11.8428C52.4599 11.8428 53.2626 11.8428 53.8348 11.8428C53.9931 11.8428 54.0377 11.9077 54.0377 12.0496C54.0419 12.2077 54.0538 12.9904 54.0538 12.9904H54.0901C54.3013 12.6378 54.8279 11.6848 56.4047 11.6848C58.0395 11.6848 58.9475 12.7999 58.9475 14.0488V19.3969H57.2327Z" fill="#A0A0B9"/>
<mask id="mask0_4221_188008" style="mask-type:luminance" maskUnits="userSpaceOnUse" x="75" y="22" width="23" height="16">
<path d="M79.5809 34.5534C81.7196 38.0698 85.1357 37.9999 86.0447 37.9999H97.0337L84.0689 22.2593C78.0882 22.5066 74.9223 26.3422 75.5719 27.9514L79.5809 34.5534Z" fill="white"/>
</mask>
<g mask="url(#mask0_4221_188008)">
<path d="M79.5809 34.5534C81.7196 38.0698 85.1357 37.9999 86.0447 37.9999H97.0337L84.0689 22.2593C78.0882 22.5066 74.9223 26.3422 75.5719 27.9514L79.5809 34.5534Z" fill="#A0A0B9"/>
</g>
<mask id="mask1_4221_188008" style="mask-type:luminance" maskUnits="userSpaceOnUse" x="71" y="16" width="17" height="12">
<path d="M80.5701 16.2709C75.1046 16.2709 71.0234 17.171 71.0234 19.3104C71.0234 20.0965 71.2699 20.7795 71.9376 21.9814L75.57 27.9531C75.5545 27.9258 75.2152 27.1323 75.2152 26.1727C75.2152 22.5793 78.3998 20.5201 82.0198 19.7763C83.0709 19.5604 84.1486 19.4571 85.2034 19.4571C86.0916 19.4571 86.9233 19.5037 87.5636 19.7358C87.1859 18.3602 86.1871 16.2709 80.5701 16.2709Z" fill="white"/>
</mask>
<g mask="url(#mask1_4221_188008)">
<path d="M80.5701 16.2709C75.1046 16.2709 71.0234 17.171 71.0234 19.3104C71.0234 20.0965 71.2699 20.7795 71.9376 21.9814L75.57 27.9531C75.5545 27.9258 75.2152 27.1323 75.2152 26.1727C75.2152 22.5793 78.3998 20.5201 82.0198 19.7763C83.0709 19.5604 84.1486 19.4571 85.2034 19.4571C86.0916 19.4571 86.9233 19.5037 87.5636 19.7358C87.1859 18.3602 86.1871 16.2709 80.5701 16.2709Z" fill="#A0A0B9"/>
</g>
<mask id="mask2_4221_188008" style="mask-type:luminance" maskUnits="userSpaceOnUse" x="58" y="0" width="21" height="16">
<path d="M66.1943 12.5454C67.6974 15.0093 68.2536 15.6242 71.8315 15.6289C74.4579 15.6289 78.6668 15.6289 78.6668 15.6289L69.2436 3.72736C67.163 1.15603 65.965 0.684454 64.0557 0.644711H58.9492L66.1943 12.5454Z" fill="white"/>
</mask>
<g mask="url(#mask2_4221_188008)">
<path d="M66.1943 12.5454C67.6974 15.0093 68.2536 15.6242 71.8315 15.6289C74.4579 15.6289 78.6668 15.6289 78.6668 15.6289L69.2436 3.72736C67.163 1.15603 65.965 0.684454 64.0557 0.644711H58.9492L66.1943 12.5454Z" fill="#A0A0B9"/>
</g>
<path d="M99.0792 37.1056C99.2063 37.1056 99.267 37.0505 99.267 36.9622C99.267 36.8797 99.2006 36.8239 99.0792 36.8239C99.0408 36.8239 99.0242 36.8298 99.0185 36.8298V37.1004C99.0242 37.1004 99.0517 37.1056 99.0792 37.1056ZM99.0958 37.2108H99.0185V37.5584H98.8696V36.7193C98.8696 36.7193 98.9967 36.7193 99.1176 36.7193C99.3111 36.7193 99.4159 36.8186 99.4159 36.9678C99.4159 37.1389 99.2779 37.183 99.2504 37.1885L99.4548 37.5584H99.2836L99.0958 37.2108ZM98.4389 37.1553C98.4389 37.5307 98.7425 37.8344 99.1176 37.8344C99.4932 37.8344 99.7967 37.5307 99.7967 37.1553C99.7967 36.7799 99.4932 36.4763 99.1176 36.4763C98.7425 36.4763 98.4389 36.7799 98.4389 37.1553ZM99.9623 37.1553C99.9623 37.6247 99.5871 38 99.1176 38C98.6486 38 98.2734 37.6247 98.2734 37.1553C98.2734 36.6916 98.6486 36.3108 99.1176 36.3108C99.5871 36.3108 99.9623 36.6916 99.9623 37.1553Z" fill="#A0A0B9"/>
</svg>
