<svg width="24" height="24" viewBox="0 0 24 24" fill="none" xmlns="http://www.w3.org/2000/svg">
<path fill-rule="evenodd" clip-rule="evenodd" d="M5.45867 2.22468C6.81763 2.11426 8.95862 2 12 2C15.0414 2 17.1824 2.11427 18.5413 2.22468C20.282 2.3661 21.6339 3.71803 21.7753 5.45868C21.8857 6.81763 22 8.95862 22 12C22 15.0414 21.8857 17.1824 21.7753 18.5413C21.6339 20.282 20.282 21.6339 18.5413 21.7753C17.1824 21.8857 15.0414 22 12 22C8.95862 22 6.81762 21.8857 5.45866 21.7753C3.71801 21.6339 2.3661 20.282 2.22468 18.5413C2.11426 17.1824 2 15.0414 2 12C2 8.95862 2.11427 6.81762 2.22468 5.45867C2.3661 3.71801 3.71803 2.3661 5.45867 2.22468Z" fill="#6647F0"/>
<path d="M10.6614 13.2456C9.19867 13.0518 8.07412 12.8229 7.39355 12.6665C7.03155 12.5833 6.88194 12.1575 7.1047 11.8531C8.05701 10.552 10.388 7.48884 12.8689 5.14148C13.2111 4.81774 13.7452 5.08787 13.7196 5.56476C13.6078 7.64407 13.4678 9.58241 13.3386 10.7545C14.8013 10.9482 15.9259 11.1771 16.6065 11.3335C16.9684 11.4167 17.1181 11.8425 16.8953 12.1469C15.943 13.448 13.612 16.5112 11.1311 18.8585C10.7889 19.1823 10.2548 18.9121 10.2804 18.4353C10.3922 16.3559 10.5322 14.4176 10.6614 13.2456Z" fill="white"/>
</svg>
