<svg width="24" height="24" viewBox="0 0 24 24" fill="none" xmlns="http://www.w3.org/2000/svg">
<path fill-rule="evenodd" clip-rule="evenodd" d="M5.47493 2.24902C6.83048 2.13888 8.96613 2.0249 11.9999 2.0249C15.0337 2.0249 17.1693 2.13888 18.5249 2.24902C20.2612 2.39009 21.6097 3.73863 21.7508 5.47493C21.8609 6.83049 21.9749 8.96612 21.9749 11.9999C21.9749 15.0337 21.8609 17.1693 21.7508 18.5249C21.6097 20.2612 20.2612 21.6097 18.5249 21.7508C17.1693 21.8609 15.0337 21.9749 11.9999 21.9749C8.96612 21.9749 6.83048 21.8609 5.47492 21.7508C3.73862 21.6097 2.39008 20.2612 2.24902 18.5249C2.13888 17.1693 2.0249 15.0337 2.0249 11.9999C2.0249 8.96613 2.13888 6.83048 2.24902 5.47492C2.39009 3.73862 3.73864 2.39009 5.47493 2.24902Z" fill="#3E63DD"/>
<path d="M9.94159 6.39648C10.3974 6.46732 10.6894 6.86078 10.7069 7.32179C10.738 8.14141 10.7785 9.65842 10.7785 11.9999C10.7785 14.3414 10.738 15.8584 10.7069 16.678C10.6894 17.139 10.3974 17.5325 9.94159 17.6033C9.60317 17.6559 9.14034 17.6999 8.53919 17.6999C7.93804 17.6999 7.4752 17.6559 7.13678 17.6033C6.68095 17.5325 6.38895 17.139 6.37148 16.678C6.34037 15.8584 6.2999 14.3414 6.2999 11.9999C6.2999 9.65842 6.34037 8.14141 6.37148 7.32179C6.38895 6.86078 6.68095 6.46732 7.13678 6.39648C7.4752 6.34391 7.93804 6.2999 8.53919 6.2999C9.14034 6.2999 9.60317 6.34391 9.94159 6.39648Z" fill="white"/>
<path d="M14.1799 6.34216C13.666 6.37978 13.2919 6.78664 13.2663 7.30127C13.2429 7.77209 13.2217 8.44762 13.2217 9.35347C13.2217 10.2594 13.2429 10.9349 13.2663 11.4057C13.2919 11.9203 13.666 12.3272 14.1799 12.3648C14.505 12.3886 14.9288 12.407 15.461 12.407C15.9932 12.407 16.417 12.3886 16.7421 12.3648C17.256 12.3272 17.6301 11.9203 17.6558 11.4057C17.6792 10.9349 17.7003 10.2594 17.7003 9.35347C17.7003 8.44762 17.6792 7.77209 17.6558 7.30127C17.6301 6.78664 17.256 6.37978 16.7421 6.34216C16.417 6.31839 15.9932 6.2999 15.461 6.2999C14.9288 6.2999 14.505 6.31839 14.1799 6.34216Z" fill="white"/>
</svg>
