<svg width="24" height="24" viewBox="0 0 24 24" fill="none" xmlns="http://www.w3.org/2000/svg">
<path d="M16.5055 1.09106C16.736 1.09106 16.9372 1.09742 17.1119 1.10767C17.8899 1.15358 18.3548 1.78749 18.3815 2.51001C18.393 2.82229 18.402 3.19761 18.403 3.62329C18.8175 3.64685 19.1897 3.67126 19.5201 3.69556C21.0739 3.80998 22.2954 4.99333 22.4293 6.55688C22.6182 8.76702 22.6715 10.9677 22.6715 13.1858C22.6715 16.2257 22.5514 18.3991 22.4303 19.8147C22.2965 21.3784 21.0741 22.5616 19.5201 22.676C17.9704 22.7899 15.5093 22.9094 11.9996 22.9094C8.48997 22.9094 6.02884 22.7899 4.47913 22.676C2.92523 22.5615 1.7037 21.3783 1.56995 19.8147C1.44884 18.3991 1.32776 16.2257 1.32776 13.1858C1.32776 10.9677 1.37984 8.76701 1.56897 6.55688C1.70279 4.99326 2.9252 3.80994 4.47913 3.69556C4.80955 3.67126 5.18168 3.64685 5.59631 3.62329C5.59724 3.19761 5.6063 2.8223 5.6178 2.51001C5.64446 1.78744 6.10931 1.15351 6.88733 1.10767C7.06205 1.09742 7.2633 1.09106 7.49377 1.09106C7.72403 1.09107 7.92471 1.09743 8.09924 1.10767C8.8774 1.1534 9.34313 1.78738 9.36975 2.51001C9.38004 2.78829 9.38794 3.11716 9.39026 3.48657C10.1858 3.47173 11.0548 3.46216 11.9996 3.46216C12.9445 3.46216 13.8135 3.47173 14.609 3.48657C14.6114 3.11716 14.6192 2.78829 14.6295 2.51001C14.6561 1.78749 15.1211 1.15358 15.899 1.10767C16.0737 1.09742 16.275 1.09106 16.5055 1.09106ZM14.8522 8.22681C12.7838 8.22699 11.3962 9.52756 11.3961 11.4612C11.3961 13.2265 12.5681 14.4668 14.2457 14.467C15.2428 14.467 16.0853 13.948 16.4156 13.1262H16.4762C16.4761 14.9924 15.8364 16.0773 14.6237 16.0774C14.0442 16.0774 13.6663 15.8822 13.2418 15.552C12.9521 15.3364 12.7569 15.2688 12.5143 15.2688C12.0428 15.2689 11.6795 15.6053 11.6793 16.0969C11.6793 16.5484 12.0023 16.9667 12.5211 17.2766C13.0669 17.6068 13.8083 17.7952 14.6237 17.7952C17.1302 17.7951 18.5524 16.0636 18.5524 12.9573C18.5524 9.97225 17.1836 8.22681 14.8522 8.22681ZM8.6012 8.34204C8.14988 8.34213 7.67151 8.49648 7.14612 8.83325L6.04749 9.56763C5.65011 9.81685 5.44802 10.1136 5.44788 10.4436C5.44788 10.8883 5.7717 11.2122 6.21643 11.2122C6.43871 11.2121 6.62786 11.1444 6.97815 10.9221L7.68518 10.4436H7.71252V16.5012C7.71252 17.2558 8.10963 17.6877 8.81702 17.6877C9.5178 17.6877 9.91565 17.2626 9.91565 16.5012V9.69556C9.91546 8.87374 9.38943 8.34204 8.6012 8.34204ZM14.8326 9.92505C15.6276 9.92518 16.1939 10.545 16.194 11.4006C16.194 12.2496 15.6276 12.8429 14.8326 12.843C14.0375 12.843 13.485 12.2496 13.485 11.3938C13.4851 10.5314 14.0376 9.92505 14.8326 9.92505Z" fill="#E93D82"/>
</svg>
