<svg width="24" height="24" viewBox="0 0 24 24" fill="none" xmlns="http://www.w3.org/2000/svg">
<path d="M18.4096 3.66934C19.45 3.75386 20.2461 4.54995 20.3306 5.59032C20.4374 6.90467 20.55 9.0017 20.55 11.9999C20.55 14.9981 20.4374 17.0951 20.3306 18.4095C20.2461 19.4498 19.45 20.2459 18.4096 20.3305C17.0953 20.4372 14.9982 20.5499 12 20.5499C9.00182 20.5499 6.90479 20.4372 5.59045 20.3305C4.55008 20.2459 3.75399 19.4498 3.66946 18.4095C3.56267 17.0951 3.45002 14.9981 3.45002 11.9999C3.45002 9.0017 3.56267 6.90467 3.66946 5.59033C3.75399 4.54995 4.55007 3.75387 5.59044 3.66934C6.90479 3.56255 9.00182 3.4499 12 3.4499C14.9982 3.4499 17.0953 3.56255 18.4096 3.66934Z" fill="#6647F0"/>
<path fill-rule="evenodd" clip-rule="evenodd" d="M3.66946 18.4095C3.56267 17.0951 3.45002 14.9981 3.45002 11.9999C3.45002 9.0017 3.56267 6.90467 3.66946 5.59033C3.75399 4.54995 4.55007 3.75387 5.59044 3.66934C6.90479 3.56255 9.00182 3.4499 12 3.4499C14.9982 3.4499 17.0953 3.56255 18.4096 3.66934C19.45 3.75386 20.2461 4.54995 20.3306 5.59032C20.4374 6.90467 20.55 9.0017 20.55 11.9999C20.55 14.9981 20.4374 17.0951 20.3306 18.4095C20.2461 19.4498 19.45 20.2459 18.4096 20.3305C17.0953 20.4372 14.9982 20.5499 12 20.5499C9.00182 20.5499 6.90479 20.4372 5.59045 20.3305C4.55008 20.2459 3.75399 19.4498 3.66946 18.4095ZM18.525 2.24902C20.2613 2.39008 21.6098 3.73863 21.7509 5.47493C21.861 6.83049 21.975 8.96612 21.975 11.9999C21.975 15.0337 21.861 17.1693 21.7509 18.5249C21.6098 20.2612 20.2613 21.6097 18.525 21.7508C17.1694 21.8609 15.0338 21.9749 12 21.9749C8.96625 21.9749 6.8306 21.8609 5.47504 21.7508C3.73874 21.6097 2.39021 20.2612 2.24914 18.5249C2.139 17.1693 2.02502 15.0337 2.02502 11.9999C2.02502 8.96613 2.139 6.83048 2.24914 5.47493C2.39021 3.73863 3.73875 2.39009 5.47505 2.24902C6.83061 2.13888 8.96625 2.0249 12 2.0249C15.0338 2.0249 17.1694 2.13888 18.525 2.24902Z" fill="#6647F0"/>
<path fill-rule="evenodd" clip-rule="evenodd" d="M11.4882 6.30153C11.2508 6.29532 11.0053 6.30787 10.8109 6.32298C10.5225 6.34539 10.284 6.53986 10.1898 6.80772C9.96126 7.45814 9.73369 8.14881 9.51182 8.85356C8.84624 8.87115 8.3239 8.89015 7.99306 8.90347C7.69664 8.9154 7.43765 9.10044 7.32924 9.37614C7.16815 9.78578 7.07557 10.05 7.02259 10.2209C6.98577 10.3396 6.99578 10.4607 7.07212 10.5538C7.14563 10.6434 7.25965 10.6811 7.3763 10.6839C7.89789 10.6962 8.42385 10.7058 8.94719 10.7131C8.6857 11.6036 8.43947 12.4809 8.2178 13.2936C7.6916 13.301 7.26901 13.3084 6.98163 13.314C6.67007 13.32 6.39738 13.5169 6.29052 13.8084C6.20092 14.0528 6.13291 14.2438 6.08128 14.3931C6.01987 14.5705 6.041 14.7465 6.13756 14.882C6.23349 15.0165 6.39265 15.0953 6.57732 15.1032C6.96142 15.1195 7.34449 15.1332 7.72442 15.1445C7.51618 15.9437 7.35356 16.5913 7.2522 17.0005C7.17009 17.332 7.37482 17.6859 7.74619 17.6976C7.9792 17.7049 8.22176 17.6936 8.41764 17.6791C8.72471 17.6562 8.97288 17.4384 9.0562 17.1496L9.62352 15.1835C10.6681 15.1957 11.6573 15.193 12.5408 15.1827L12.0223 16.9796C11.9248 17.3176 12.1296 17.6882 12.513 17.6983C12.7504 17.7045 12.9959 17.6919 13.1904 17.6768C13.4787 17.6544 13.7172 17.4599 13.8114 17.1921C14.04 16.5415 14.2677 15.8506 14.4896 15.1457C15.1546 15.1281 15.6766 15.1091 16.0072 15.0958C16.3036 15.0838 16.5626 14.8988 16.671 14.6231C16.8321 14.2135 16.9247 13.9492 16.9777 13.7784C17.0145 13.6597 17.0045 13.5386 16.9282 13.4455C16.8546 13.3558 16.7406 13.3182 16.624 13.3154C16.1027 13.3031 15.5772 13.2935 15.0542 13.2861C15.3157 12.3957 15.5619 11.5183 15.7836 10.7057C16.3093 10.6983 16.7315 10.6908 17.0187 10.6853C17.3302 10.6792 17.6029 10.4823 17.7097 10.1908C17.7994 9.94642 17.8674 9.75541 17.919 9.60622C17.9804 9.42876 17.9593 9.25272 17.8627 9.11729C17.7668 8.98274 17.6076 8.9039 17.4229 8.89605C17.0392 8.87976 16.6565 8.8661 16.2769 8.85478C16.4851 8.05583 16.6477 7.40842 16.749 6.99931C16.8311 6.66785 16.6264 6.31394 16.255 6.30223C16.022 6.29488 15.7795 6.3062 15.5836 6.32076C15.2765 6.34358 15.0284 6.56139 14.945 6.85023L14.3779 8.81582C13.3333 8.80353 12.3442 8.80627 11.4606 8.81658L11.9789 7.02019C12.0765 6.68219 11.8717 6.31156 11.4882 6.30153ZM10.1748 13.273L10.9083 10.7307C11.9501 10.7353 12.9432 10.7325 13.8266 10.7263L13.0931 13.2685C12.0513 13.2639 11.0582 13.2668 10.1748 13.273Z" fill="white"/>
</svg>
