<svg width="24" height="24" viewBox="0 0 24 24" fill="none" xmlns="http://www.w3.org/2000/svg">
<path fill-rule="evenodd" clip-rule="evenodd" d="M21.7753 5.45867C21.6339 3.71802 20.282 2.3661 18.5413 2.22468C17.1824 2.11426 15.0414 2 12 2C8.95862 2 6.81763 2.11427 5.45867 2.22468C3.71802 2.3661 2.3661 3.71802 2.22468 5.45867C2.11426 6.81763 2 8.95862 2 12C2 15.0414 2.11427 17.1824 2.22468 18.5413C2.3661 20.282 3.71801 21.6339 5.45867 21.7753C6.81762 21.8857 8.95862 22 12 22C15.0414 22 17.1824 21.8857 18.5413 21.7753C20.282 21.6339 21.6339 20.282 21.7753 18.5413C21.8857 17.1824 22 15.0414 22 12C22 8.95862 21.8857 6.81763 21.7753 5.45867ZM10.3974 8.18489C9.46859 7.81763 8.59642 8.37695 8.4599 9.36638C8.36453 10.0574 8.28567 10.9492 8.28567 12.0086C8.28567 13.068 8.36453 13.9598 8.4599 14.6509C8.59642 15.6403 9.46859 16.1996 10.3974 15.8323C10.9994 15.5943 11.7948 15.2337 12.8235 14.6872C13.7992 14.1688 14.5651 13.7063 15.155 13.3173C16.1641 12.6521 16.1641 11.3651 15.155 10.6999C14.5651 10.311 13.7992 9.84838 12.8235 9.33003C11.7948 8.78358 10.9994 8.42295 10.3974 8.18489Z" fill="#E5484D"/>
</svg>
