<svg width="24" height="24" viewBox="0 0 24 24" fill="none" xmlns="http://www.w3.org/2000/svg">
<path fill-rule="evenodd" clip-rule="evenodd" d="M2.24902 18.5249C2.13888 17.1693 2.0249 15.0337 2.0249 11.9999C2.0249 8.96613 2.13888 6.83048 2.24902 5.47492C2.39009 3.73862 3.73863 2.39008 5.47493 2.24902C6.83048 2.13888 8.96612 2.0249 11.9999 2.0249C15.0337 2.0249 17.1693 2.13888 18.5249 2.24902C20.2612 2.39009 21.6097 3.73863 21.7508 5.47494C21.8609 6.83048 21.9749 8.96612 21.9749 11.9999C21.9749 15.0337 21.8609 17.1693 21.7508 18.5249C21.6097 20.2612 20.2612 21.6097 18.5249 21.7508C17.1693 21.8609 15.0337 21.9749 11.9999 21.9749C8.96612 21.9749 6.83047 21.8609 5.47493 21.7508C3.73862 21.6097 2.39009 20.2612 2.24902 18.5249ZM15.9043 16.8427C15.5192 16.7788 15.3067 16.4237 15.2972 16.0334C15.2802 15.3363 15.2576 14.0297 15.2576 12.0011C15.2576 9.97251 15.2802 8.66586 15.2972 7.96879C15.3067 7.57847 15.5192 7.22336 15.9043 7.15947C16.0615 7.13342 16.2522 7.11538 16.4791 7.11538C16.7059 7.11538 16.8967 7.13342 17.0538 7.15947C17.439 7.22336 17.6514 7.57847 17.6609 7.96879C17.6779 8.66586 17.7005 9.97251 17.7005 12.0011C17.7005 14.0297 17.6779 15.3363 17.6609 16.0334C17.6514 16.4237 17.439 16.7788 17.0538 16.8427C16.8966 16.8688 16.7059 16.8868 16.4791 16.8868C16.2522 16.8868 16.0615 16.8688 15.9043 16.8427ZM11.5433 16.8677C11.0983 16.8283 10.8214 16.4453 10.8088 15.9988C10.7938 15.4655 10.7781 14.6233 10.7781 13.4261C10.7781 12.2289 10.7938 11.3867 10.8088 10.8534C10.8214 10.4069 11.0983 10.0238 11.5433 9.98448C11.6752 9.97279 11.8269 9.96538 11.9995 9.96538C12.1721 9.96538 12.3238 9.97279 12.4558 9.98448C12.9007 10.0238 13.1776 10.4069 13.1902 10.8534C13.2053 11.3867 13.2209 12.2289 13.2209 13.4261C13.2209 14.6233 13.2053 15.4655 13.1902 15.9988C13.1776 16.4453 12.9007 16.8283 12.4558 16.8677C12.3238 16.8794 12.1721 16.8868 11.9995 16.8868C11.8269 16.8868 11.6752 16.8794 11.5433 16.8677ZM7.18743 16.8782C6.68392 16.8599 6.33003 16.4566 6.31497 15.953C6.30634 15.6659 6.2999 15.3001 6.2999 14.8483C6.2999 14.3965 6.30634 14.0307 6.31497 13.7436C6.33003 13.24 6.68392 12.8367 7.18743 12.8184C7.28861 12.8148 7.3998 12.8126 7.52133 12.8126C7.64286 12.8126 7.75405 12.8148 7.85523 12.8184C8.35878 12.8367 8.71263 13.24 8.72774 13.7436C8.73633 14.0307 8.74276 14.3965 8.74276 14.8483C8.74276 15.3001 8.73633 15.6659 8.72774 15.953C8.71263 16.4566 8.35878 16.8599 7.85523 16.8782C7.75405 16.8819 7.64286 16.884 7.52133 16.884C7.3998 16.884 7.28861 16.8819 7.18743 16.8782Z" fill="#DC3175"/>
</svg>
