<svg width="24" height="24" viewBox="0 0 24 24" fill="none" xmlns="http://www.w3.org/2000/svg">
<path d="M13.2319 2.03406C13.6406 2.04023 14.0946 2.11331 14.541 2.31302C15.269 2.63868 16.6668 3.3808 18.0601 4.77409C19.414 6.12797 20.1529 7.48609 20.4922 8.22904C20.6984 8.68055 20.7763 9.14115 20.785 9.55846C20.8003 10.2951 20.8093 11.1076 20.8093 11.9999C20.8093 15.1312 20.6984 17.2792 20.5923 18.618C20.4585 20.3047 19.1525 21.6227 17.4642 21.7673C16.2589 21.8705 14.4375 21.9749 12.0003 21.9749C9.56298 21.9749 7.74165 21.8705 6.53636 21.7673C4.848 21.6227 3.54196 20.3047 3.40823 18.618C3.30209 17.2792 3.19116 15.1312 3.19116 11.9999C3.19116 8.86856 3.30209 6.72061 3.40823 5.3818C3.54196 3.69511 4.84797 2.37711 6.53634 2.23251C7.74165 2.12928 9.56299 2.0249 12.0003 2.0249C12.43 2.0249 12.8405 2.02815 13.2319 2.03406Z" fill="#0091FF"/>
<path fill-rule="evenodd" clip-rule="evenodd" d="M7.04451 8.4374C7.04451 7.84715 7.523 7.36865 8.11326 7.36865H11.9996C12.5899 7.36865 13.0684 7.84715 13.0684 8.4374C13.0684 9.02766 12.5899 9.50615 11.9996 9.50615H8.11326C7.523 9.50615 7.04451 9.02766 7.04451 8.4374Z" fill="white"/>
<path fill-rule="evenodd" clip-rule="evenodd" d="M7.04451 12.3562C7.04451 11.7659 7.523 11.2874 8.11326 11.2874H15.886C16.4762 11.2874 16.9547 11.7659 16.9547 12.3562C16.9547 12.9464 16.4762 13.4249 15.886 13.4249H8.11326C7.523 13.4249 7.04451 12.9464 7.04451 12.3562Z" fill="white"/>
<path fill-rule="evenodd" clip-rule="evenodd" d="M7.04451 16.2749C7.04451 15.6846 7.523 15.2062 8.11326 15.2062H15.886C16.4762 15.2062 16.9547 15.6846 16.9547 16.2749C16.9547 16.8652 16.4762 17.3437 15.886 17.3437H8.11326C7.523 17.3437 7.04451 16.8652 7.04451 16.2749Z" fill="white"/>
</svg>
