<svg width="24" height="24" viewBox="0 0 24 24" fill="none" xmlns="http://www.w3.org/2000/svg">
<path d="M17.247 4.67845C17.2764 4.3721 17.3062 4.00795 17.3284 3.61295C17.3313 3.56202 17.3327 3.51122 17.3328 3.46088C17.6717 3.48279 17.9791 3.50551 18.2553 3.52799C19.4412 3.62453 20.3606 4.52896 20.4611 5.71714C20.579 7.11143 20.7032 9.35911 20.7032 12.6419C20.7032 15.9247 20.579 18.1724 20.4611 19.5667C20.3606 20.7548 19.4412 21.6593 18.2553 21.7558C16.9128 21.8651 14.8282 21.9801 12.0016 21.9801C9.175 21.9801 7.09041 21.8651 5.74795 21.7558C4.56203 21.6593 3.64257 20.7548 3.54211 19.5667C3.42421 18.1724 3.30005 15.9247 3.30005 12.6419C3.30005 9.35911 3.42421 7.11143 3.54211 5.71714C3.64257 4.52896 4.56203 3.62453 5.74795 3.52799C6.02398 3.50552 6.33141 3.4828 6.6702 3.46089C6.67026 3.51122 6.6717 3.56186 6.67456 3.61278C6.69676 4.00785 6.72659 4.37218 6.75596 4.67857C6.87529 5.92326 7.84072 6.95632 9.15061 7.07218C9.78392 7.12821 10.718 7.18034 12.0014 7.18034C13.2848 7.18034 14.2189 7.1282 14.8523 7.07218C16.1621 6.95633 17.1277 5.9233 17.247 4.67845Z" fill="#5A3CD7"/>
<path d="M12.0014 2.03003C10.823 2.03003 9.91533 2.06624 9.27825 2.1054C8.5252 2.15168 7.96015 2.78384 8.00247 3.53817C8.02353 3.91279 8.05188 4.25928 8.0799 4.55155C8.14076 5.18644 8.62389 5.69029 9.26781 5.74724C9.85905 5.79955 10.7539 5.85023 12.0014 5.85023C13.249 5.85023 14.1438 5.79954 14.7351 5.74723C15.3791 5.69028 15.8623 5.18642 15.9231 4.5515C15.9511 4.25925 15.9795 3.91278 16.0005 3.5382C16.0428 2.78385 15.4778 2.15169 14.7247 2.10541C14.0876 2.06624 13.1798 2.03003 12.0014 2.03003Z" fill="white"/>
<path fill-rule="evenodd" clip-rule="evenodd" d="M8.00247 3.53817C7.96015 2.78384 8.5252 2.15168 9.27825 2.1054C9.91533 2.06624 10.823 2.03003 12.0014 2.03003C13.1798 2.03003 14.0876 2.06624 14.7247 2.10541C15.4778 2.15169 16.0428 2.78385 16.0005 3.5382C15.9795 3.91278 15.9511 4.25925 15.9231 4.5515C15.8623 5.18642 15.3791 5.69028 14.7351 5.74723C14.1438 5.79954 13.249 5.85023 12.0014 5.85023C10.7539 5.85023 9.85905 5.79955 9.26781 5.74724C8.62389 5.69029 8.14076 5.18644 8.0799 4.55155C8.05188 4.25928 8.02353 3.91279 8.00247 3.53817Z" fill="#5A3CD7"/>
<path d="M15.401 12.7264C15.603 12.4184 15.6531 12.016 15.4269 11.7254C15.2112 11.4482 14.9509 11.2444 14.7117 11.0982C14.3074 10.8513 13.816 11.0401 13.5526 11.4338C12.2229 13.4211 11.5315 14.4477 11.5315 14.4477C11.5315 14.4477 11.0631 13.9502 10.4722 13.2741C10.1132 12.8633 9.50819 12.7579 9.10496 13.1256C8.95679 13.2606 8.80339 13.4168 8.66162 13.591C8.3929 13.921 8.44862 14.3873 8.7172 14.7174C9.48234 15.6581 10.1663 16.39 10.6847 16.9084C11.2331 17.4569 12.0867 17.3995 12.56 16.785C13.1625 16.0026 14.0934 14.7202 15.401 12.7264Z" fill="white"/>
</svg>
