<svg width="24" height="24" viewBox="0 0 24 24" fill="none" xmlns="http://www.w3.org/2000/svg">
<path d="M18.4095 3.66934C19.4498 3.75386 20.2459 4.54995 20.3305 5.59032C20.4372 6.90467 20.5499 9.0017 20.5499 11.9999C20.5499 14.9981 20.4372 17.0951 20.3305 18.4095C20.2459 19.4498 19.4498 20.2459 18.4095 20.3305C17.0951 20.4372 14.9981 20.5499 11.9999 20.5499C9.0017 20.5499 6.90467 20.4372 5.59033 20.3305C4.54995 20.2459 3.75387 19.4498 3.66934 18.4095C3.56255 17.0951 3.4499 14.9981 3.4499 11.9999C3.4499 9.0017 3.56255 6.90467 3.66934 5.59033C3.75386 4.54995 4.54995 3.75387 5.59032 3.66934C6.90467 3.56255 9.0017 3.4499 11.9999 3.4499C14.9981 3.4499 17.0951 3.56255 18.4095 3.66934Z" fill="#12A594"/>
<path fill-rule="evenodd" clip-rule="evenodd" d="M3.66934 18.4095C3.56255 17.0951 3.4499 14.9981 3.4499 11.9999C3.4499 9.0017 3.56255 6.90467 3.66934 5.59033C3.75386 4.54995 4.54995 3.75387 5.59032 3.66934C6.90467 3.56255 9.0017 3.4499 11.9999 3.4499C14.9981 3.4499 17.0951 3.56255 18.4095 3.66934C19.4498 3.75386 20.2459 4.54995 20.3305 5.59032C20.4372 6.90467 20.5499 9.0017 20.5499 11.9999C20.5499 14.9981 20.4372 17.0951 20.3305 18.4095C20.2459 19.4498 19.4498 20.2459 18.4095 20.3305C17.0951 20.4372 14.9981 20.5499 11.9999 20.5499C9.0017 20.5499 6.90467 20.4372 5.59033 20.3305C4.54995 20.2459 3.75387 19.4498 3.66934 18.4095ZM18.5249 2.24902C20.2612 2.39008 21.6097 3.73863 21.7508 5.47493C21.8609 6.83049 21.9749 8.96612 21.9749 11.9999C21.9749 15.0337 21.8609 17.1693 21.7508 18.5249C21.6097 20.2612 20.2612 21.6097 18.5249 21.7508C17.1693 21.8609 15.0337 21.9749 11.9999 21.9749C8.96612 21.9749 6.83048 21.8609 5.47492 21.7508C3.73862 21.6097 2.39009 20.2612 2.24902 18.5249C2.13888 17.1693 2.0249 15.0337 2.0249 11.9999C2.0249 8.96613 2.13888 6.83048 2.24902 5.47493C2.39009 3.73863 3.73863 2.39009 5.47493 2.24902C6.83048 2.13888 8.96613 2.0249 11.9999 2.0249C15.0337 2.0249 17.1693 2.13888 18.5249 2.24902Z" fill="#12A594"/>
<path fill-rule="evenodd" clip-rule="evenodd" d="M7.99209 15.2653C7.20926 15.2653 6.60759 15.2309 6.19599 15.1955C5.66963 15.1502 5.26786 14.7383 5.23253 14.2125C5.20198 13.7579 5.17178 13.0443 5.17178 11.9997C5.17178 10.955 5.20198 10.2414 5.23253 9.78676C5.26786 9.26097 5.66963 8.84914 6.19599 8.80387C6.60759 8.76848 7.20926 8.73405 7.99209 8.73405C8.77492 8.73405 9.3766 8.76848 9.78818 8.80387C10.3145 8.84914 10.7163 9.26097 10.7517 9.78676C10.7822 10.2414 10.8124 10.955 10.8124 11.9997C10.8124 13.0443 10.7822 13.7579 10.7517 14.2126C10.7163 14.7384 10.3145 15.1502 9.78818 15.1955C9.3766 15.2309 8.77492 15.2653 7.99209 15.2653ZM13.6327 15.2653C13.0884 15.2653 12.6708 15.2404 12.3668 15.2108C11.8453 15.1601 11.4805 14.7394 11.454 14.2372C11.4302 13.786 11.4062 13.0658 11.4062 11.9997C11.4062 10.9335 11.4302 10.2134 11.454 9.76212C11.4805 9.25999 11.8453 8.8392 12.3668 8.78849C12.6708 8.75892 13.0884 8.73405 13.6327 8.73405C14.177 8.73405 14.5946 8.75892 14.8986 8.78849C15.4201 8.8392 15.785 9.25999 15.8114 9.76212C15.8352 10.2134 15.8593 10.9335 15.8593 11.9997C15.8593 13.0658 15.8352 13.786 15.8114 14.2372C15.785 14.7394 15.4201 15.1601 14.8986 15.2108C14.5946 15.2404 14.177 15.2653 13.6327 15.2653ZM17.2302 15.2335C17.3542 15.2519 17.4942 15.2653 17.6405 15.2653C17.7869 15.2653 17.9269 15.2519 18.0509 15.2335C18.5158 15.1644 18.792 14.7566 18.8032 14.3406C18.8149 13.904 18.828 13.1568 18.828 11.9997C18.828 10.8425 18.8149 10.0953 18.8032 9.65872C18.792 9.24271 18.5158 8.83498 18.0509 8.76587C17.9269 8.74743 17.7869 8.73405 17.6405 8.73405C17.4942 8.73405 17.3542 8.74743 17.2302 8.76587C16.7653 8.83498 16.489 9.24271 16.4779 9.65872C16.4661 10.0953 16.453 10.8425 16.453 11.9997C16.453 13.1568 16.4661 13.904 16.4779 14.3406C16.489 14.7566 16.7653 15.1644 17.2302 15.2335Z" fill="white"/>
</svg>
