<svg width="24" height="24" viewBox="0 0 24 24" fill="none" xmlns="http://www.w3.org/2000/svg">
<path fill-rule="evenodd" clip-rule="evenodd" d="M5.45003 2.22411C6.80558 2.11398 8.94123 2 11.975 2C15.0088 2 17.1444 2.11398 18.5 2.22412C20.2363 2.36519 21.5848 3.71373 21.7259 5.45003C21.836 6.80559 21.95 8.94122 21.95 11.975C21.95 15.0088 21.836 17.1444 21.7259 18.5C21.5848 20.2363 20.2363 21.5848 18.5 21.7259C17.1444 21.836 15.0088 21.95 11.975 21.95C8.94122 21.95 6.80557 21.836 5.45001 21.7259C3.71371 21.5848 2.36518 20.2363 2.22411 18.5C2.11398 17.1444 2 15.0088 2 11.975C2 8.94123 2.11398 6.80558 2.22412 5.45002C2.36519 3.71372 3.71374 2.36519 5.45003 2.22411Z" fill="#F76808"/>
<path fill-rule="evenodd" clip-rule="evenodd" d="M7.82065 17.874C8.5464 17.934 9.86653 18 12 18C14.1397 18 15.4536 17.928 16.1794 17.874C17.1053 17.802 17.7998 17.136 17.8811 16.254C17.945 15.5677 17.9745 14.7862 17.9882 14.1614C17.9946 13.896 17.9981 13.6606 18 13.476C18 13.463 17.9996 13.45 17.9987 13.4371C18 13.2581 18 13.1252 18 13.056C18 12.984 17.9937 12.912 17.9875 12.84C17.731 10.614 17.3743 8.754 17.1178 7.584C16.9301 6.72 16.1543 6.09 15.2409 6.054C14.365 6.018 13.2701 6 12 6C10.7299 6 9.63504 6.018 8.75912 6.054C7.83942 6.09 7.06986 6.72 6.88217 7.584C6.62565 8.754 6.26277 10.614 6.01251 12.84C6 12.912 6 12.984 6 13.056C6 13.142 6.00047 13.2688 6.002 13.4262C6.00067 13.4426 6 13.4592 6 13.476C6.00626 14.1 6.03128 15.282 6.11887 16.254C6.20021 17.136 6.89468 17.802 7.82065 17.874ZM16.7372 12.87H14.6027C14.0021 12.87 13.4703 13.236 13.2826 13.782L13.1199 14.25C13.0949 14.31 13.0448 14.346 12.9823 14.346H11.0177C10.9552 14.346 10.8989 14.304 10.8801 14.25L10.7174 13.782C10.5297 13.236 9.99791 12.87 9.39729 12.87H7.26379C7.51312 10.7341 7.85607 8.95716 8.10219 7.836C8.17727 7.5 8.45881 7.266 8.80918 7.254C9.66632 7.218 10.7424 7.2 12 7.2C13.2576 7.2 14.3337 7.218 15.1908 7.254C15.5412 7.272 15.8227 7.506 15.8978 7.836C16.1442 8.95816 16.4936 10.7373 16.7372 12.87Z" fill="white"/>
</svg>
