<svg width="98" height="77" viewBox="0 0 98 77" fill="none" xmlns="http://www.w3.org/2000/svg">
<path d="M2.6501 55.0504L3.97376 53.0203L6.26898 53.6582L4.77142 51.8048L6.05684 49.8007L3.8338 50.6841L2.28946 48.8352L2.42099 51.2358L0.265625 52.0634L2.51435 52.6624L2.6501 55.0504ZM2.33605 46.1068L4.01191 44.3528L6.15443 45.4216L5.03016 43.3226L6.66355 41.5986L4.32154 42.0382L3.1549 39.9177L2.84517 42.3012L0.554265 42.702L2.6501 43.7277L2.33605 46.1068ZM3.71915 37.2499L5.68777 35.8706L7.59696 37.3188L6.87569 35.0345L8.82303 33.6682L6.43012 33.638L5.68777 31.3364L4.92404 33.6294L2.60322 33.5734L4.47013 34.9742L3.71915 37.2499ZM13.596 20.6778L14.8264 22.751L14.9962 20.3805L17.2998 19.8245L15.1064 18.8978L15.2634 16.4885L13.7235 18.316L11.5851 17.3765L12.7942 19.3935L11.2584 21.2081L13.596 20.6778ZM42.0301 6.4977L43.7949 4.91169L45.8187 6.14858L44.8641 3.91603L46.6291 2.29544L44.2743 2.51524L43.3835 0.342971L42.8616 2.64028L40.5197 2.87732L42.5646 4.12716L42.0301 6.4977ZM8.28007 71.9369L8.75516 69.5493L11.1183 69.2604L9.05214 68.114L9.49761 65.7736L7.76222 67.4285L5.65374 66.308L6.67198 68.4806L4.97063 70.0793L7.27016 69.7775L8.28007 71.9369ZM19.506 14.5102L20.3291 16.7859L20.9485 14.4756L23.3074 14.3937L21.3218 13.0576L21.9369 10.7085L20.083 12.1956L18.1567 10.881L18.9544 13.0964L17.1173 14.5748L19.506 14.5102ZM26.4809 9.57088L26.8501 11.963L27.9066 9.81659L30.2357 10.1959L28.5301 8.49342L29.5739 6.31248L27.4568 7.41595L25.8276 5.75232L26.2094 8.07115L24.1179 9.1831L26.4809 9.57088ZM34.1642 8.49332L35.5898 6.58827L37.8171 7.40718L36.4637 5.40728L37.8935 3.47643L35.6152 4.13583L34.3297 2.19202L34.2617 4.54961L31.9961 5.21758L34.2448 6.06668L34.1642 8.49332ZM4.07978 61.4723L4.65687 63.791L5.57331 61.5284L7.9619 61.7052L6.13765 60.1834L7.02006 57.9682L5.00907 59.2611L3.14647 57.744L3.7319 60.08L1.75915 61.3128L4.07978 61.4723ZM6.74417 28.8669L8.93768 27.8799L10.5286 29.6858L10.2571 27.3066L12.4081 26.3369L10.0789 25.8541L9.78194 23.4448L8.59814 25.5352L6.33685 25.0352L7.89815 26.7852L6.74417 28.8669ZM75.0758 14.2085L75.6868 16.5185L76.5394 14.2602L78.9153 14.3249L77.0699 12.8207L77.9099 10.6269L75.9627 11.9243L74.1299 10.4244L74.7321 12.7776L72.7252 14.1008L75.0758 14.2085ZM78.7964 19.4839L81.0918 20.0313L81.2488 22.4234L82.4962 20.3589L84.8255 20.8976L83.2938 19.0615L84.5284 17.0703L82.3816 17.9625L80.8498 16.1437L81.0068 18.5702L78.7964 19.4839ZM68.0925 9.61393L69.1235 11.7561L69.5224 9.38128L71.8768 8.99768L69.7852 7.87268L70.1884 5.55823L68.5295 7.21319L66.4379 6.10125L67.4689 8.29504L65.7674 9.98029L68.0925 9.61393ZM85.9031 26.9316L85.6188 29.2978L87.2395 27.5178L89.4158 28.4961L88.2492 26.3972L89.8401 24.6861L87.5618 25.1559L86.3995 23.0526L86.1023 25.4662L83.7688 25.9274L85.9031 26.9316ZM58.1392 7.2649L60.3707 6.45904L61.7838 8.38561L61.7201 5.9506L63.9687 5.1273L61.6988 4.42905L61.6565 2.07156L60.337 4.01526L58.084 3.32139L59.5137 5.28244L58.1392 7.2649ZM93.9726 50.7962L94.1379 48.4L92.5726 50.2662L90.3622 49.3482L91.6305 51.3566L90.1159 53.2012L92.4239 52.5978L93.7263 54.6279L93.8791 52.2273L96.1277 51.6628L93.9726 50.7962ZM92.39 61.0367L94.7107 60.9246L92.7634 59.6447L93.3531 57.3346L91.4778 58.8558L89.4795 57.5284L90.3535 59.7654L88.5079 61.2654L90.8966 61.123L91.796 63.3642L92.39 61.0367ZM87.7994 69.1527L88.2492 71.5404L89.2844 69.3725L91.5796 69.7087L89.8952 68.0836L90.9262 65.9287L88.7964 67.0536L87.0697 65.3642L87.5067 67.7046L85.4362 68.8337L87.7994 69.1527ZM29.489 54.0848C29.3065 53.934 27.0664 56.2486 25.6026 57.8645C25.0852 58.425 24.7498 58.9552 24.5505 59.2051C24.5505 59.2051 23.9056 60.2869 23.5619 60.7439C23.214 61.2008 22.3528 62.4894 21.971 63.0499C21.8394 63.235 21.5 64.0496 20.834 64.8944C20.503 65.3167 20.1679 65.8685 19.5187 66.7134C18.6533 67.8425 17.9998 68.7691 18.1484 68.8942C18.2332 68.9543 19.506 67.3899 20.872 65.7091C21.4406 65.0065 22.0558 64.2868 22.5777 63.6013C22.8321 63.2697 23.4177 62.7136 23.6087 62.429C23.9437 61.9247 24.3088 61.5412 24.4529 61.4204C25.2124 60.7913 25.6409 60.744 25.8869 60.3863C26.0015 60.2096 27.5075 57.9079 28.0549 56.9727C28.5554 56.0891 29.79 54.3606 29.489 54.0848ZM93.1833 39.4996L92.0038 41.6159L89.666 41.1504L91.291 42.8959L90.1585 44.9776L92.3053 43.9432L93.9596 45.6801L93.667 43.2837L95.7714 42.301L93.4802 41.8699L93.1833 39.4996ZM87.4345 33.2372L89.3564 34.6207L88.6268 36.9049L90.5362 35.4611L92.5089 36.8532L91.7536 34.5603L93.6331 33.1811L91.3209 33.2026L90.5696 30.9268L89.819 33.2328L87.4345 33.2372ZM50.1208 6.09268L52.1572 4.87293L53.9052 6.46333L53.3919 4.10135L55.4238 2.86446L53.0695 2.61448L52.5941 0.308594L51.6609 2.46791L49.3191 2.23945L51.0922 3.8687L50.1208 6.09268ZM50.4263 48.1109C50.6469 48.7706 51.4659 52.6581 51.7032 53.4641C51.9491 54.2658 52.1954 54.309 52.3313 54.6234C52.8062 55.8347 53.4892 55.882 53.8415 55.9811C54.8259 56.2873 54.9063 57.6275 55.5342 58.8257C56.1198 59.9465 56.6715 60.9548 57.189 62.1788C57.7065 63.4029 60.354 70.0319 60.808 71.0403C60.9605 71.4066 62.2206 71.4066 62.0847 71.0403C61.7668 70.3119 61.0411 68.4805 60.5914 66.6528C60.3073 65.4677 61.3978 66.3079 60.7017 64.4072C60.3792 63.5366 59.7685 62.6704 59.425 62.3168C59.0727 61.9678 58.7332 60.4635 58.4659 59.791C58.1819 59.1358 58.3258 59.1015 57.7406 57.5197C57.3033 56.3646 58.5297 56.7525 57.8424 54.9724C57.397 53.8132 55.1314 49.6239 54.8683 49.1929C54.741 48.9556 54.3042 48.2316 53.7651 47.3739C53.2561 46.5594 52.8362 45.6888 52.5942 45.3093C52.1233 44.5423 51.2579 42.8613 50.7699 42.1631C50.2865 41.4605 49.6837 39.9175 49.4335 40.1763C49.1876 40.4046 50.1631 42.7191 50.562 44.1931C50.9821 45.6629 50.6766 46.2621 50.4264 46.6799C50.1928 47.0939 50.1928 47.3698 50.4263 48.1109ZM65.7971 60.11C66.4635 61.2351 66.6416 61.0109 66.9174 61.024C67.5452 61.0413 68.9496 62.5757 69.2296 62.9937C69.4968 63.416 71.7579 65.7047 72.3393 66.265C72.5939 66.5106 74.3844 69.4499 74.6133 69.2391C74.8552 69.0277 73.9262 67.6013 73.7861 67.282C73.659 66.9718 73.1412 66.5106 72.8907 65.8427C72.6575 65.1875 71.5927 63.5367 71.245 63.0154C70.9009 62.4894 70.341 61.3256 69.73 60.5888C69.1658 59.942 69.6157 59.7655 69.0345 59.1967C68.6822 58.8605 67.5878 57.8732 67.3416 57.6664C67.1084 57.4509 66.2131 56.6451 65.6998 56.1926C65.1904 55.7529 63.9687 54.8908 64.0111 54.3393C64.0279 53.7743 63.7607 52.7015 63.3492 52.3437C63.052 52.0851 62.1783 50.6541 61.1772 49.8265C60.6722 49.3955 59.5945 48.2578 58.7631 47.2708C57.9865 46.3311 57.4012 45.4733 57.2229 45.5941C56.9599 45.7666 58.1269 47.4215 58.2453 47.62C58.3684 47.8094 59.7176 50.1799 59.8448 50.8006C59.985 51.43 62.5008 55.7313 63.0396 57.0673C63.3491 57.8475 65.0717 58.8905 65.7971 60.11ZM76.7855 64.2695C76.8703 64.166 76.6285 63.847 76.4972 63.6058C76.3527 63.3643 75.4958 62.3989 75.3345 62.1273C75.1946 61.8732 74.0831 60.2654 73.6924 59.7397C72.997 58.8344 73.6333 58.5025 73.2682 57.9424C73.1198 57.6966 72.2289 56.6061 71.1936 55.5287C70.6591 54.9898 70.0651 54.4683 69.5604 54.0071C68.7415 53.2659 68.1222 52.7142 68.0205 52.8048C67.876 52.9512 68.3596 53.5417 68.5676 53.8132C68.7754 54.0717 69.1021 54.55 69.5349 55.0717C70.2349 55.921 69.5857 56.5629 70.2559 57.2396C70.3662 57.3517 72.2161 59.4548 72.6703 59.843C73.3447 60.4549 75.7545 63.3599 75.9242 63.5193C76.2086 63.7909 76.7048 64.3729 76.7855 64.2695ZM38.6443 50.4816C38.7802 50.1884 39.2002 49.2834 39.179 48.9215C39.179 48.8568 39.0219 48.7447 38.8904 48.8781C38.271 49.4989 37.0111 51.7142 36.5316 51.9642C35.454 52.4942 34.983 53.7788 34.6605 54.2873C34.4314 54.6623 34.1345 55.27 33.6211 56.0331C33.1714 56.6924 32.6581 57.6793 32.4671 58.0198C32.2805 58.3774 32.2125 58.705 32.5604 58.705C32.9083 58.705 32.6369 59.2827 32.2125 59.9162C31.9707 60.2869 31.3725 62.0627 31.1986 62.5453C30.9694 63.1401 31.0034 63.8986 30.9228 64.1529C30.8421 64.3901 29.701 66.8598 29.4039 67.4071C29.2173 67.752 29.2724 67.8898 29.2002 68.0795C29.0942 68.3165 29.2258 68.3855 29.4039 68.213C29.6204 67.9931 30.8421 66.1095 31.2154 65.8857C31.5804 65.6529 31.9155 65.3082 31.9706 64.4978C32.0257 63.6876 32.5435 63.4678 32.9295 62.9937C33.3326 62.5238 33.8628 61.8946 34.1471 61.2351C34.4143 60.5543 34.7581 61.0713 35.3776 60.0586C35.9968 59.0372 37.3886 56.5201 37.7067 56.0331C38.0121 55.5458 37.7873 54.8433 37.7491 54.2616C37.7321 53.9557 37.7745 53.2012 37.9528 52.3997C38.1311 51.6842 38.4577 50.9556 38.6443 50.4816ZM43.9732 31.2504C44.4865 31.2504 45.2374 30.2977 45.6447 29.4703C46.0648 28.5738 46.277 28.0696 46.803 26.923C46.8242 26.8627 46.7732 26.8627 46.718 26.8627C46.1199 26.8627 45.4622 27.4834 45.0424 27.9833C44.5459 28.604 43.7314 29.772 43.6083 30.6125C43.5192 31.0649 43.7143 31.2504 43.9732 31.2504ZM57.2271 32.0562C57.8127 32.3579 58.5382 31.0477 59.1703 29.8538C59.7981 28.6513 60.2988 27.16 59.7685 26.9747C59.1703 26.7291 58.4108 27.9014 57.7787 29.0995C57.1548 30.2977 56.68 31.7891 57.2271 32.0562ZM34.5842 31.2504C35.1102 31.2504 35.8443 30.2977 36.2685 29.4703C36.6844 28.5738 36.905 28.0696 37.4141 26.923C37.4396 26.8627 37.3886 26.8627 37.3419 26.8627C36.7395 26.8627 36.0818 27.4834 35.6661 27.9833C35.1696 28.604 34.3467 29.772 34.2236 30.6125C34.1346 31.0649 34.3467 31.2504 34.5842 31.2504ZM28.8312 20.4191C32.9041 20.6131 35.3012 22.6431 35.3012 24.8197C35.297 28.7117 29.2216 29.3754 29.2216 29.3754C28.1651 34.7673 23.9565 36.8231 21.0418 36.793C17.13 36.7628 17.1894 33.5433 17.3211 33.1295C17.4865 32.6509 17.7282 32.2157 18.2205 32.2157C18.7084 32.2157 19.1157 32.6208 19.1157 33.1295C19.1157 33.4356 18.9671 33.7242 18.7084 33.8751C18.1951 34.1984 18.2926 34.6035 18.2926 34.6035C18.2926 36.3146 20.469 36.4481 21.0419 36.4481C26.8669 36.4481 26.1966 26.6988 31.3344 23.3845C31.5678 23.225 31.7502 23.3845 31.606 23.5483C30.0023 25.5912 29.3998 28.8841 29.3998 28.8841C31.8775 28.8841 33.5152 26.4877 33.5152 24.8197C33.5152 21.9623 30.9823 20.7769 28.8313 20.7769C22.8322 20.7769 20.2272 25.0352 20.2272 27.354C20.2272 29.6771 21.6698 30.5175 22.7135 30.5175C24.1688 30.5175 24.6227 29.5306 24.4445 29.0479C24.156 28.2894 24.5547 27.6558 25.0046 27.6558C25.1827 27.6558 25.781 27.6256 25.781 28.6946C25.781 29.7246 24.3427 30.7633 22.7517 30.7633C21.1819 30.7633 18.8867 29.9014 18.8867 27.3541C18.8865 22.1906 25.1402 20.2295 28.8312 20.4191ZM38.9329 26.7291C38.2838 28.2204 37.8044 29.2892 37.206 30.6987C37.1552 30.8323 37.1085 31.0649 37.2317 31.1511C37.3419 31.2028 37.4693 31.2028 37.5413 31.1511C38.3092 30.7762 38.9838 29.8667 39.5142 28.8323L40.4602 26.7118H41.7924L41.4274 27.5134C41.3976 27.5565 41.3976 27.5823 41.4274 27.5565C41.8433 27.2376 42.2802 26.7591 42.8148 26.4617C43.0227 26.3626 43.5191 26.3626 43.468 26.7117C43.4426 27.022 43.2093 27.2591 43.0779 27.5565C43.0015 27.7461 42.9208 27.9832 42.9463 28.1125C43.0015 28.2546 43.1542 28.3322 43.3621 28.1728C43.57 28.0392 43.7313 27.9314 43.9222 27.772C44.253 27.4443 44.6731 27.1384 45.144 26.8842C46.0901 26.4402 47.3756 26.1514 48.3175 26.7591C47.6598 28.2547 47.1635 29.3667 46.5355 30.7761C46.421 31.0174 46.5143 31.095 46.5906 31.151C46.6713 31.2027 46.824 31.2285 47.0361 31.1124C47.5536 30.8926 48.4701 29.8539 48.835 29.0478C49.1829 28.2979 49.4969 27.5565 49.8659 26.7118H51.2365L50.8544 27.5307L50.9095 27.5566C51.2746 27.2161 52.2291 26.4403 52.9333 26.6041C53.3238 26.686 53.5145 27.16 53.485 27.5135C53.9303 27.1817 54.3886 26.7851 55.0505 26.6213C55.9965 26.3843 56.3657 27.0523 56.073 27.6946C55.7039 28.5739 54.974 30.2978 54.5541 31.1858C54.5032 31.2764 54.5032 31.4745 54.5541 31.5177C54.6601 31.6039 54.8469 31.5177 54.9275 31.4745C55.3983 31.065 55.6573 30.8022 56.0219 30.2763C56.1237 29.3453 56.6201 28.4877 57.3076 27.7722C58.0372 26.949 59.1911 26.3069 60.2986 26.6861C60.6846 26.8154 60.9477 27.2162 61.0538 27.6128C61.1047 27.824 61.1556 27.9317 61.1556 28.1731C61.7368 28.6042 62.4962 27.9016 62.8062 27.3758C62.891 27.1602 62.997 26.9231 63.0478 26.7593C63.3788 26.7851 64.0277 26.7593 64.4139 26.7593L62.7041 30.729C62.5941 30.9616 62.5684 31.0952 62.5684 31.2764C62.5684 31.4228 62.7254 31.4487 62.8909 31.4228C63.3618 31.3366 64.1295 30.3971 64.5156 29.6083C64.9484 28.6213 65.3771 27.7981 65.8014 26.8154H67.1844C66.6328 28.1429 66.0089 29.5566 65.5594 30.5911C65.4534 30.8022 65.3305 31.0177 65.3982 31.3107C65.4533 31.4487 65.6358 31.4228 65.7502 31.3711C66.3484 31.0177 67.3794 29.854 67.736 29.1342C68.1092 28.2808 68.3849 27.6429 68.7753 26.8153H70.1966L69.8572 27.6429C70.3874 27.2162 70.9559 26.7593 71.6392 26.6473C71.953 26.6042 72.3435 26.6213 72.526 26.949C72.7381 27.3197 72.6107 27.7118 72.4537 28.0696C72.0634 28.9747 71.6093 29.9574 71.2191 30.8324C71.1469 31.0478 71.1258 31.2504 71.2658 31.3365C71.4822 31.4745 72.4747 30.8582 72.9797 29.7376C73.4168 28.7549 73.7139 28.173 74.1041 27.2162H73.3745L73.5781 26.7852H74.3119L75.3598 24.4707H76.7731L75.7546 26.7852H76.8196L76.6201 27.2162H75.572C74.9698 28.5135 74.4647 29.6082 73.9387 30.8324C73.7352 31.2504 73.523 31.953 73.6333 32.3796C73.7141 32.6168 74.0025 32.677 74.2654 32.5866C75.0715 32.3021 75.6231 31.604 76.094 30.8582C76.1196 30.7763 76.5478 30.8324 76.5139 30.8927C75.958 32.0046 74.7577 33.1296 73.6078 33.0994C73.2643 33.0994 72.8907 32.8839 72.6871 32.5865C72.5898 32.4312 72.5262 32.302 72.475 32.1167C72.4028 31.815 72.4244 31.4744 72.475 31.1512C71.8514 31.634 71.2532 32.2158 70.4641 32.3795C70.1203 32.4312 69.6793 32.302 69.5986 31.9271C69.5477 31.634 69.5731 31.3106 69.6794 31.0478C70.1756 29.9574 70.6168 28.9747 71.0877 27.8239C71.126 27.7721 71.0877 27.5825 71.0326 27.5567C70.9561 27.4835 70.7229 27.4835 70.5151 27.6429C69.5477 28.3842 69.0513 29.3453 68.6356 30.3279C68.3385 30.9874 68.0207 31.6555 67.7107 32.302H66.3192C66.4805 31.9056 66.7138 31.371 66.8961 30.9401C66.8961 30.9143 66.8708 30.9143 66.8708 30.9401C66.2981 31.5177 65.5597 32.1814 64.8344 32.3796C64.5415 32.4571 64.2487 32.3581 64.1003 32.0779C63.9347 31.8151 63.8882 31.4228 64.028 31.0651C64.028 31.0479 64.0155 31.0479 63.9859 31.0651C63.4682 31.604 62.9635 32.0779 62.2674 32.3236C61.4742 32.5692 60.7615 32.0047 61.262 30.8324C61.3979 30.5176 61.7923 29.6341 62.2251 28.5739C61.8645 28.7247 61.4233 28.7247 61.1858 28.6514C61.1559 28.6514 61.1559 28.6514 61.1559 28.6773C60.8503 30.1642 59.9807 31.5177 58.6444 32.1641C57.991 32.4873 57.2485 32.5692 56.5994 32.1167C56.2855 31.9056 56.0987 31.3883 56.0734 30.94C55.3987 31.634 54.6307 32.5088 53.5871 32.358C53.4301 32.3235 53.2988 32.1813 53.2181 32.0348C52.9804 31.634 53.1202 31.2029 53.2689 30.8581C53.7696 29.7979 54.1811 28.8065 54.6818 27.6126C54.7622 27.4444 54.5373 27.3238 54.3762 27.4015C53.8799 27.6429 53.5743 27.8842 53.2988 28.3152C53.1501 28.5479 53.0016 28.8151 52.8828 29.0693C52.4202 30.0909 51.9368 31.1511 51.5166 32.1812H50.0954C50.7319 30.7288 51.33 29.315 51.9578 27.8799C52.0173 27.7462 51.9835 27.5566 51.907 27.5135C51.784 27.4445 51.5592 27.5566 51.4148 27.6429C51.0753 27.88 50.7741 28.1946 50.5494 28.6041C50.3118 29.0006 50.0955 29.397 49.93 29.8281L48.8695 32.1814H47.482C47.6178 31.8711 47.8765 31.2505 48.0335 30.9401C48.0335 30.9143 48.008 30.8928 48.008 30.9143C47.2486 31.5521 46.2771 32.3796 45.5686 32.2417C45.3309 32.2158 45.1273 32.0047 45.0722 31.7893C45.0214 31.5178 45.0425 31.2764 45.0977 31.0479C45.0977 31.0177 45.0722 31.0177 45.0426 31.0479C44.4357 31.6341 43.8928 32.1168 43.1291 32.3021C42.692 32.4012 42.2806 32.1168 42.1405 31.7893C41.9454 31.4228 41.8988 30.8325 42.2126 30.1643C42.3993 29.7377 42.603 29.2894 42.8617 28.9188C42.709 29.0007 42.3993 29.0265 42.1871 29.0007C42.009 28.9749 41.818 28.8326 41.7247 28.6947C41.6144 28.574 41.5889 28.3326 41.5889 28.1732C41.6144 28.143 41.5338 28.143 41.4786 28.1732C41.0629 28.5137 40.8763 28.9189 40.6684 29.3671L39.4634 32.1384H38.0465L38.5683 30.9617C38.5938 30.9402 38.5683 30.9144 38.5428 30.9402C37.8046 31.604 36.9222 32.3582 36.2094 32.2159C36.0056 32.1814 35.7893 31.9746 35.7384 31.7678C35.6876 31.5178 35.7087 31.2505 35.7384 31.0177H35.6876C35.1104 31.604 34.559 32.0779 33.8081 32.2417C33.3796 32.3796 32.9935 32.1168 32.8279 31.746C32.6201 31.2029 32.6965 30.6514 32.8831 30.1384C33.4262 28.6946 34.4317 27.6645 35.7893 26.8845C36.6504 26.3843 37.991 26.2334 38.9329 26.7291ZM8.47093 49.029C8.47093 55.1191 10.062 61.9807 12.9002 67.6095C18.0295 62.7479 31.4872 47.3181 33.0315 45.5251C35.3778 42.7969 36.3917 44.5338 37.6517 43.008C38.3263 42.1719 38.7207 41.853 39.0177 41.6849C39.5014 41.3918 40.053 40.6937 40.3287 40.4866C40.6045 40.2755 41.2282 39.4351 41.7119 39.0126C42.1999 38.5946 43.1544 37.9611 44.126 37.1248C45.0934 36.2801 46.7395 34.3233 48.534 34.3233C50.668 34.3233 51.5592 35.7931 51.7499 35.9698C51.9026 36.138 53.218 37.3188 53.43 37.543C53.6632 37.8102 55.0718 38.9394 55.8356 38.9394C56.5908 38.9394 57.151 39.7798 57.5581 40.198C58.4618 41.034 62.1951 45.0208 63.4214 45.8656C63.9688 46.2491 64.4862 46.1803 64.8935 46.5036C65.3137 46.818 65.5215 47.0209 65.7589 47.094C65.9881 47.1587 66.7899 46.9516 67.7234 48.1371C68.1562 48.4387 68.2708 48.4906 68.2708 48.4906C68.2708 48.4906 69.5391 49.6585 69.9933 50.4817C70.4048 51.1929 79.8614 63.9549 83.2471 68.5193C86.3866 62.7352 88.1813 56.0892 88.1813 49.0207C88.1813 26.6473 70.3284 8.53218 48.3177 8.53218C26.3068 8.54503 8.47093 26.6687 8.47093 49.029Z" fill="#A0A0B9"/>
<path d="M80.9297 73.9219V74.3747H81.7909V76.7711H82.3382V74.3747H83.1952V73.9219H80.9297ZM86.0972 73.9219L85.3377 75.9433L84.5571 73.9219H83.7722V76.7712H84.2814V74.5426H84.294L85.1425 76.7712H85.52L86.3517 74.5426H86.3731V76.7712H86.8781V73.9219H86.0972Z" fill="#A0A0B9"/>
</svg>
