<svg width="24" height="24" viewBox="0 0 24 24" fill="none" xmlns="http://www.w3.org/2000/svg">
<g clip-path="url(#clip0_1163_98851)">
<path d="M7.96387 0.920654C9.22319 0.964841 10.1739 1.93428 10.2783 3.24683C10.2899 3.24683 10.3019 3.24683 10.3135 3.24683C11.4138 3.23583 12.6016 3.23499 13.7031 3.24585C13.8145 1.92816 14.7674 0.953914 16.041 0.920654H16.7725C18.0907 0.96504 19.077 2.00632 19.1104 3.4021V3.43433C19.1175 3.43441 19.1247 3.4353 19.1318 3.4353C19.3202 3.44638 19.4872 3.46851 19.6201 3.46851C21.3372 3.59056 22.6997 4.92035 22.8438 6.63745H22.8545C22.9542 7.90048 23.0879 10.061 23.0879 13.1521C23.0879 16.2432 22.9653 18.4037 22.8545 19.6667C22.7104 21.384 21.3481 22.7134 19.6309 22.8464C18.6891 22.924 16.0523 23.0789 12.0195 23.0789C7.98713 23.0789 5.3502 22.9129 4.4082 22.8464C2.69093 22.7135 1.32763 21.3729 1.18359 19.6667C1.02848 17.8165 0.951172 15.5895 0.951172 13.1521C0.951172 10.7147 1.02849 8.46552 1.18359 6.63745C1.32765 4.93128 2.67987 3.59038 4.4082 3.46851C4.5411 3.45742 4.70732 3.4353 4.89551 3.4353C5.06165 3.43529 5.22805 3.41382 5.40527 3.41382L7.06738 3.32593L5.39355 3.41382C5.2166 3.41385 5.05068 3.43526 4.88477 3.4353V3.4021C4.91815 2.00627 5.91507 0.964968 7.2334 0.920654H7.96387ZM7.28809 3.13647C7.18987 3.14481 7.12144 3.2076 7.09277 3.32495H7.10059V4.48804C7.11167 4.75394 7.11133 4.9979 7.11133 5.21948C7.11133 5.2695 7.11627 5.31357 7.12305 5.35229H8.08008C8.08835 5.31358 8.09515 5.26948 8.09766 5.21948C8.09766 4.96466 8.1084 4.68726 8.1084 4.36597L8.10742 4.8064C8.10604 4.95331 8.1032 5.09198 8.09766 5.21948C8.09765 5.2694 8.09242 5.3136 8.08398 5.35229H8.10645C8.11487 5.31361 8.11914 5.26937 8.11914 5.21948C8.13022 4.96466 8.13086 4.67619 8.13086 4.36597V3.29077L8.09766 3.29175V4.34448C8.09766 4.02318 8.08594 3.72333 8.08594 3.46851C8.08586 3.24717 8.0196 3.13647 7.88672 3.13647H7.28809ZM16.0967 3.13647C16.0009 3.14518 15.9331 3.21561 15.9082 3.34741V4.36597C15.9082 4.66511 15.9189 4.94254 15.9189 5.18628V5.21948C15.9189 5.26947 15.9239 5.31359 15.9307 5.35229H16.9004C16.9102 5.30847 16.916 5.26272 16.916 5.21948C16.9271 5.00898 16.9277 4.75394 16.9277 4.48804V3.32593L16.9053 3.32495V4.32202C16.9053 4.00072 16.8945 3.72333 16.8945 3.46851C16.8945 3.31349 16.8493 3.13647 16.6943 3.13647H16.0967ZM16.915 4.83569C16.9137 4.9755 16.9108 5.1084 16.9053 5.23022C16.9053 5.00871 16.9049 4.76458 16.916 4.49878L16.915 4.83569Z" fill="#F96E5F"/>
<path d="M12.3496 9.2409C12.7689 8.88165 13.3994 8.93016 13.7588 9.3493L16.7588 12.8493L17.3174 13.4997L16.7588 14.1501L13.7588 17.6501C13.3994 18.0694 12.7689 18.1179 12.3496 17.7585C11.9304 17.399 11.8818 16.7686 12.2412 16.3493L13.8262 14.4997H7.5C6.94772 14.4997 6.5 14.052 6.5 13.4997C6.50015 12.9475 6.94781 12.4997 7.5 12.4997H13.8262L12.2412 10.6501C11.8819 10.2308 11.9303 9.60028 12.3496 9.2409Z" fill="white"/>
</g>
<defs>
<clipPath id="clip0_1163_98851">
<rect width="24" height="24" fill="white"/>
</clipPath>
</defs>
</svg>
