<svg xmlns="http://www.w3.org/2000/svg" width="24" height="24" viewBox="0 0 24 24" fill="none">
  <path fill-rule="evenodd" clip-rule="evenodd" d="M10.5 4.00009C6.91015 4.00009 4 6.91024 4 10.5001C4 14.0899 6.91015 17.0001 10.5 17.0001C14.0898 17.0001 17 14.0899 17 10.5001C17 6.91024 14.0898 4.00009 10.5 4.00009ZM2 10.5001C2 5.80568 5.80558 2.00009 10.5 2.00009C15.1944 2.00009 19 5.80568 19 10.5001C19 15.1945 15.1944 19.0001 10.5 19.0001C5.80558 19.0001 2 15.1945 2 10.5001Z" fill="url(#paint0_linear_743_15543)"/>
  <path fill-rule="evenodd" clip-rule="evenodd" d="M19.4958 15.63C20.0872 16.1068 20.7027 16.6274 21.2534 17.2226C22.3464 18.404 22.1231 20.0025 21.1116 21.0199C20.6384 21.4959 20.0245 21.8581 19.3309 21.9506C18.6108 22.0466 17.8839 21.8385 17.2811 21.3068C16.6584 20.7576 16.1224 20.1257 15.6388 19.5216C15.4829 19.3268 15.3347 19.1381 15.1906 18.9545C14.8705 18.5468 14.57 18.1641 14.2472 17.7949L15.7528 16.4784C16.1119 16.889 16.4654 17.3392 16.8007 17.7661C16.9371 17.9399 17.0706 18.1098 17.2001 18.2716C17.6666 18.8543 18.1152 19.3758 18.604 19.8069C18.778 19.9603 18.9277 19.9866 19.0666 19.9681C19.2322 19.946 19.4598 19.8447 19.6933 19.6099C20.0688 19.2322 20.0401 18.8563 19.7853 18.5808C19.337 18.0963 18.8142 17.6495 18.2406 17.1871C18.0874 17.0636 17.9281 16.9371 17.7658 16.8082C17.3401 16.4702 16.8933 16.1154 16.4788 15.7529L17.7953 14.2473C18.1719 14.5766 18.5608 14.8854 18.9717 15.2117C19.1424 15.3472 19.3168 15.4857 19.4958 15.63Z" fill="url(#paint1_linear_743_15543)"/>
  <defs>
    <linearGradient id="paint0_linear_743_15543" x1="2" y1="11.9867" x2="21.9776" y2="11.9867" gradientUnits="userSpaceOnUse">
      <stop stop-color="#8930FD"/>
      <stop offset="1" stop-color="#FF02F0"/>
    </linearGradient>
    <linearGradient id="paint1_linear_743_15543" x1="2" y1="11.9867" x2="21.9776" y2="11.9867" gradientUnits="userSpaceOnUse">
      <stop stop-color="#8930FD"/>
      <stop offset="1" stop-color="#FF02F0"/>
    </linearGradient>
  </defs>
</svg>