<svg width="100" height="13" viewBox="0 0 100 13" fill="none" xmlns="http://www.w3.org/2000/svg">
<path d="M49.2389 5.20453H42.9718V0.38959H41.0757V12.6167H42.9718V6.82283H49.2389V12.6167H51.1151V0.38959H49.2389M30.7469 0.349633C30.0583 0.329654 28.6612 0.329652 27.4237 0.329652V12.6068H29.3398V7.95164C29.8188 7.95164 30.8067 7.91168 31.6051 7.89171C32.7228 7.87173 35.6368 7.31231 35.6169 3.94585C35.6468 0.149843 31.4454 0.349633 30.7469 0.349633ZM30.6471 6.32335H29.3797V1.89801H30.4575C30.9564 1.89801 33.9004 1.67823 33.9902 3.96583C34.11 6.21347 31.7847 6.32335 30.6471 6.32335ZM13.0632 0.329652L13.0831 12.6068H20.7773V11.0084H14.9992V6.84281H19.0908C19.0908 6.49318 19.0708 5.98371 19.0908 5.31441H14.9992V1.96793H20.7773C20.7574 0.998948 20.7773 0.329652 20.7773 0.329652H13.0632ZM1.87615 3.3265C1.87615 1.31861 4.5307 1.2387 6.09748 2.52734C6.63637 0.97897 6.67629 0.869085 6.67629 0.869085C2.10568 -1.32861 0.019959 1.57834 0.019959 3.43639C0.019959 7.88171 6.31703 6.93271 5.40889 10.0594C5.08955 11.1982 3.06371 11.8475 0.728504 10.429C0.558853 10.9085 0.279426 11.4879 0 12.0673C3.08367 13.6856 7.08545 12.9064 7.21519 9.56994C7.39482 5.37435 1.87615 5.67403 1.87615 3.3265ZM82.7501 3.77603C82.4707 0.129862 78.9379 0.409568 78.1595 0.36961C77.5109 0.349631 76.1337 0.329652 74.9461 0.329652V12.5868H76.8622V7.43219C77.5109 7.43219 77.7204 7.43219 78.6984 7.39223L82.1912 12.5868H84.5165L80.6544 7.07256C81.6923 6.69296 82.8998 5.8039 82.7501 3.77603ZM78.0498 5.9937C77.6206 5.9937 77.2913 5.9937 76.8622 5.97372V1.82808H77.8701C78.3491 1.82808 80.864 1.67824 81.0835 3.68612C81.353 6.06363 78.5687 5.9937 78.0498 5.9937ZM95.3941 0.349633H93.1787L89.1669 12.6267H91.063C91.6618 10.4091 91.8614 9.77972 91.8614 9.77972L96.8212 9.75974C97.4 11.398 97.8291 12.6467 97.8291 12.6467H99.7951L95.3941 0.349633ZM92.3005 8.3712L94.2365 2.30757H94.2565L96.2823 8.35122L92.3005 8.3712ZM63.0106 0C59.1086 0 56.5639 2.88696 56.5639 6.47319C56.5639 10.0594 59.1086 12.9464 63.0106 12.9464C66.9126 12.9464 69.4574 10.0594 69.4574 6.47319C69.4574 2.88696 66.9126 0 63.0106 0ZM63.0106 11.1782C60.1465 11.1782 58.5298 9.09044 58.5298 6.47319C58.5298 3.88591 60.1465 1.76814 63.0106 1.76814C65.8548 1.76814 67.4914 3.85595 67.4914 6.47319C67.4914 9.06048 65.8747 11.1782 63.0106 11.1782Z" fill="#A0A0B9"/>
</svg>
