<svg width="100" height="16" viewBox="0 0 100 16" fill="none" xmlns="http://www.w3.org/2000/svg">
<path fill-rule="evenodd" clip-rule="evenodd" d="M0.3086 15.2462V12.2396C2.0205 12.7782 3.5353 13.0475 4.853 13.0475C6.6723 13.0475 7.5821 12.5668 7.5821 11.6061C7.5821 11.2479 7.4497 10.9469 7.1843 10.7032C6.9129 10.4447 6.2178 10.0863 5.1008 9.6272C3.0966 8.80341 1.7897 8.10087 1.1818 7.51979C0.3939 6.75278 0 5.78554 0 4.61668C0 3.11144 0.574 1.96417 1.7212 1.17577C2.8557 0.39426 4.333 0.00390625 6.1554 0.00390625C7.1595 0.00390625 8.6128 0.188637 10.5137 0.558598V3.45081C9.0993 2.88603 7.7864 2.60423 6.5734 2.60423C4.8653 2.60423 4.0113 3.07306 4.0113 4.0128C4.0113 4.36407 4.1833 4.65056 4.5278 4.87268C4.8143 5.05241 5.6037 5.43207 6.8943 6.01285C8.7526 6.83784 9.9897 7.55497 10.6061 8.16495C11.3375 8.88847 11.7039 9.82472 11.7039 10.9723C11.7039 12.6218 10.9862 13.88 9.5518 14.747C8.3897 15.45 6.8828 15.8001 5.032 15.8001C3.469 15.8001 1.8942 15.6161 0.3086 15.2462Z" fill="#A0A0B9"/>
<path fill-rule="evenodd" clip-rule="evenodd" d="M14.1055 0.269531H18.3595V15.4935H14.1055V0.269531Z" fill="#A0A0B9"/>
<path fill-rule="evenodd" clip-rule="evenodd" d="M22.2617 15.4935V0.269531H33.1722V3.0231H26.3617V6.46071H32.2899V8.97237H26.3617V12.5851H33.3477V15.4935H22.2617Z" fill="#A0A0B9"/>
<path fill-rule="evenodd" clip-rule="evenodd" d="M36.125 15.4935V0.269531H41.6405L45.4724 9.99698L49.4004 0.269531H54.6393V15.4935H50.6059V4.71456L46.1395 15.6481H43.5026L39.1222 4.71456V15.4935H36.125Z" fill="#A0A0B9"/>
<path fill-rule="evenodd" clip-rule="evenodd" d="M58.543 15.4935V0.269531H69.4533V3.0231H62.6434V6.46071H68.5714V8.97237H62.6434V12.5851H69.6299V15.4935H58.543Z" fill="#A0A0B9"/>
<path fill-rule="evenodd" clip-rule="evenodd" d="M72.4258 15.4935V0.269531H77.3562L82.587 10.4608V0.269531H85.5834V15.4935H80.793L75.4234 5.1651V15.4935H72.4258Z" fill="#A0A0B9"/>
<path fill-rule="evenodd" clip-rule="evenodd" d="M88.604 15.2463V12.2397C90.3014 12.7783 91.816 13.0476 93.1492 13.0476C94.9687 13.0476 95.8774 12.5669 95.8774 11.6062C95.8774 11.248 95.7485 10.947 95.492 10.7033C95.2192 10.4448 94.5212 10.0864 93.3975 9.6273C91.3993 8.8103 90.0911 8.10807 89.4776 7.51989C88.6901 6.75967 88.2969 5.78884 88.2969 4.60638C88.2969 3.10764 88.8695 1.96417 90.0179 1.17577C91.1507 0.39426 92.6297 0.00390625 94.4523 0.00390625C95.477 0.00390625 96.8048 0.166545 98.4333 0.493323L98.8094 0.558598V3.45081C97.3948 2.88603 96.0781 2.60423 94.8586 2.60423C93.157 2.60423 92.3083 3.07306 92.3083 4.0128C92.3083 4.36407 92.4794 4.65056 92.823 4.87268C93.096 5.04552 93.8886 5.42537 95.2008 6.01285C97.045 6.83784 98.2795 7.55497 98.9013 8.16495C99.6338 8.88847 99.9993 9.82472 99.9993 10.9723C99.9993 12.6218 99.2858 13.88 97.8587 14.747C96.6898 15.45 95.1791 15.8001 93.3286 15.8001C91.7639 15.8002 90.1884 15.6162 88.604 15.2463Z" fill="#A0A0B9"/>
</svg>
