<svg width="24" height="24" viewBox="0 0 24 24" fill="none" xmlns="http://www.w3.org/2000/svg">
<path fill-rule="evenodd" clip-rule="evenodd" d="M5.45003 2.22411C6.80558 2.11398 8.94123 2 11.975 2C15.0088 2 17.1444 2.11398 18.5 2.22412C20.2363 2.36519 21.5848 3.71373 21.7259 5.45003C21.836 6.80559 21.95 8.94122 21.95 11.975C21.95 15.0088 21.836 17.1444 21.7259 18.5C21.5848 20.2363 20.2363 21.5848 18.5 21.7259C17.1444 21.836 15.0088 21.95 11.975 21.95C8.94122 21.95 6.80557 21.836 5.45001 21.7259C3.71371 21.5848 2.36518 20.2363 2.22411 18.5C2.11398 17.1444 2 15.0088 2 11.975C2 8.94123 2.11398 6.80558 2.22412 5.45002C2.36519 3.71372 3.71374 2.36519 5.45003 2.22411Z" fill="#12A594"/>
<path d="M16.034 13.2137L17.3883 13.8901C17.8346 14.113 18.0763 14.6067 17.9784 15.0955C17.6178 16.8966 16.1441 18.3074 14.3421 17.942C12.7572 17.6207 10.7762 16.8395 8.96639 15.0317C7.1709 13.2381 6.38704 11.2761 6.06066 9.69921C5.68375 7.87823 7.11422 6.38647 8.93955 6.0218C9.41232 5.92734 9.89255 6.14569 10.1318 6.56385L10.6812 7.52433C11.0234 8.1226 10.9225 8.87567 10.4347 9.3629L10.3236 9.47391C9.95452 9.84257 9.79658 10.3767 9.99875 10.8574C10.2259 11.3975 10.6197 12.1237 11.2608 12.7397C11.8934 13.3474 12.608 13.7403 13.1396 13.9753C13.6104 14.1835 14.1393 13.9992 14.4482 13.5877C14.8169 13.0966 15.4844 12.9392 16.034 13.2137Z" fill="white"/>
</svg>
