<svg width="24" height="24" viewBox="0 0 24 24" fill="none" xmlns="http://www.w3.org/2000/svg">
<path fill-rule="evenodd" clip-rule="evenodd" d="M5.47494 21.7508C3.73863 21.6097 2.39009 20.2612 2.24902 18.5249C2.13888 17.1693 2.0249 15.0337 2.0249 11.9999C2.0249 8.96613 2.13888 6.83048 2.24902 5.47493C2.39008 3.73863 3.73863 2.39009 5.47493 2.24902C6.83048 2.13888 8.96613 2.0249 11.9999 2.0249C15.0337 2.0249 17.1693 2.13888 18.5249 2.24902C20.2612 2.39009 21.6097 3.73862 21.7508 5.47493C21.8609 6.83049 21.9749 8.96612 21.9749 11.9999C21.9749 15.0337 21.8609 17.1693 21.7508 18.5249C21.6097 20.2612 20.2612 21.6097 18.5249 21.7508C17.1693 21.8609 15.0337 21.9749 11.9999 21.9749C8.96612 21.9749 6.83049 21.8609 5.47494 21.7508Z" fill="#299764"/>
<path d="M16.6666 8.5L10.2499 14.9167L7.33325 12" stroke="white" stroke-width="3" stroke-linecap="round" stroke-linejoin="round"/>
</svg>
