<svg width="24" height="24" viewBox="0 0 24 24" fill="none" xmlns="http://www.w3.org/2000/svg">
<path d="M13.1885 8.60396C13.1885 7.94753 12.6563 7.41539 11.9999 7.41539C11.3435 7.41539 10.8113 7.94753 10.8113 8.60396V11.9999C10.8113 12.3151 10.9365 12.6174 11.1594 12.8403L13.1969 14.8779C13.6611 15.3421 14.4137 15.3421 14.8779 14.8779C15.342 14.4137 15.342 13.6612 14.8779 13.197L13.1885 11.5075V8.60396Z" fill="#00B499"/>
<path fill-rule="evenodd" clip-rule="evenodd" d="M1.44261 19.0646C1.59534 20.9445 3.05542 22.4046 4.93532 22.5573C6.40298 22.6765 8.71526 22.7999 12 22.7999C15.2846 22.7999 17.5969 22.6765 19.0646 22.5573C20.9445 22.4046 22.4046 20.9445 22.5573 19.0646C22.6765 17.5969 22.7999 15.2846 22.7999 12C22.7999 8.71526 22.6765 6.40298 22.5573 4.93532C22.4046 3.05541 20.9445 1.59534 19.0646 1.4426C17.5969 1.32335 15.2846 1.19995 12 1.19995C8.71526 1.19995 6.40299 1.32336 4.93531 1.44261C3.05541 1.59534 1.59534 3.05541 1.4426 4.93531C1.32335 6.40299 1.19995 8.71526 1.19995 12C1.19995 15.2846 1.32336 17.5969 1.44261 19.0646ZM4.86846 11.9999C4.86846 8.0613 8.0613 4.86846 11.9999 4.86846C15.9384 4.86846 19.1313 8.0613 19.1313 11.9999C19.1313 15.9385 15.9384 19.1313 11.9999 19.1313C8.0613 19.1313 4.86846 15.9385 4.86846 11.9999Z" fill="#00B499"/>
</svg>
