<svg width="24" height="24" viewBox="0 0 24 24" fill="none" xmlns="http://www.w3.org/2000/svg">
<path fill-rule="evenodd" clip-rule="evenodd" d="M5.47494 21.7508C3.73863 21.6097 2.39009 20.2612 2.24902 18.5249C2.13888 17.1693 2.0249 15.0337 2.0249 11.9999C2.0249 8.96613 2.13888 6.83048 2.24902 5.47493C2.39008 3.73863 3.73863 2.39009 5.47493 2.24902C6.83048 2.13888 8.96613 2.0249 11.9999 2.0249C15.0337 2.0249 17.1693 2.13888 18.5249 2.24902C20.2612 2.39009 21.6097 3.73862 21.7508 5.47493C21.8609 6.83049 21.9749 8.96612 21.9749 11.9999C21.9749 15.0337 21.8609 17.1693 21.7508 18.5249C21.6097 20.2612 20.2612 21.6097 18.5249 21.7508C17.1693 21.8609 15.0337 21.9749 11.9999 21.9749C8.96612 21.9749 6.83049 21.8609 5.47494 21.7508Z" fill="#FFC53D"/>
<path fill-rule="evenodd" clip-rule="evenodd" d="M10.0538 7.74265L10.0522 7.74434C10.0507 7.74592 10.0481 7.74857 10.0446 7.75225C10.0376 7.75962 10.0267 7.77113 10.0122 7.78655C9.9832 7.81739 9.93985 7.86382 9.88465 7.92398C9.77414 8.0444 9.61666 8.21926 9.43185 8.4337C9.06018 8.86495 8.58732 9.44554 8.16488 10.059C7.73299 10.6863 7.39633 11.2875 7.24602 11.7679C7.17156 12.0059 7.16151 12.1569 7.17005 12.2364C7.17256 12.2598 7.17623 12.2728 7.17811 12.2783L7.17886 12.2791C7.19233 12.2929 7.28874 12.3917 7.77744 12.2022C8.27724 12.0085 8.85889 11.6347 9.55586 11.1858L9.57483 11.1736C10.2102 10.7643 10.9651 10.278 11.6757 10.0289C12.0446 9.89959 12.4769 9.80532 12.926 9.85956C13.4058 9.9175 13.8443 10.1385 14.1895 10.5321C14.8219 11.2534 14.7593 12.0997 14.5511 12.7432C14.354 13.3521 13.9719 13.9648 13.672 14.4456L13.6688 14.4507C13.3308 14.9927 13.0872 15.3847 12.9755 15.7048C12.9575 15.7566 12.9465 15.797 12.9399 15.8274C12.9813 15.8212 13.0515 15.8043 13.1572 15.7599C13.5048 15.6139 13.915 15.3191 14.4595 14.9229L14.487 14.9029C14.9673 14.5534 15.5712 14.1139 16.1742 13.8734C16.8322 13.6109 17.7139 13.506 18.4713 14.1838C18.8613 14.5328 18.8946 15.1319 18.5456 15.5219C18.1965 15.9119 17.5975 15.9451 17.2075 15.5961L17.2053 15.5932C17.1952 15.5781 17.1575 15.5216 16.8763 15.6337C16.5269 15.7731 16.1136 16.0632 15.5746 16.4554C15.5507 16.4728 15.5264 16.4905 15.5019 16.5084C15.0348 16.8487 14.4575 17.2694 13.8911 17.5073C13.5807 17.6376 13.2061 17.7441 12.8002 17.7232C12.3689 17.7011 11.9609 17.5375 11.617 17.2236C11.2858 16.9213 11.0967 16.5401 11.0475 16.1247C11.0018 15.7381 11.083 15.376 11.1861 15.0805C11.3708 14.551 11.7195 13.9934 12.0021 13.5415C12.022 13.5097 12.0415 13.4784 12.0607 13.4478C12.3897 12.9203 12.6352 12.5078 12.7479 12.1596C12.844 11.8628 12.787 11.8048 12.7677 11.7851L12.7645 11.7817C12.7324 11.7451 12.7216 11.7438 12.7019 11.7415L12.6988 11.7411C12.6464 11.7348 12.5243 11.7398 12.3027 11.8174C11.8396 11.9798 11.2775 12.3312 10.5822 12.7791C10.5529 12.798 10.5234 12.817 10.4937 12.8362C9.87468 13.2353 9.14895 13.7032 8.46247 13.9693C7.7504 14.2454 6.74073 14.4302 5.91385 13.6903C5.09667 12.959 5.21462 11.9134 5.43725 11.2019C5.67315 10.448 6.13832 9.66035 6.60389 8.9842C7.07892 8.29433 7.59915 7.65711 7.9962 7.1964C8.19575 6.96486 8.36654 6.77519 8.48822 6.64259C8.5491 6.57624 8.59782 6.52403 8.63185 6.48787C8.64887 6.46978 8.66222 6.45569 8.6716 6.44583C8.67629 6.44091 8.67999 6.43704 8.68265 6.43425C8.68398 6.43286 8.68586 6.4309 8.68586 6.4309L8.68724 6.42946C8.68724 6.42946 8.6875 6.42919 9.37057 7.08601L8.68724 6.42946C9.04999 6.05221 9.65014 6.04019 10.0274 6.40294C10.4046 6.76562 10.4163 7.36539 10.0538 7.74265Z" fill="black"/>
</svg>
