<svg width="24" height="24" viewBox="0 0 24 24" fill="none" xmlns="http://www.w3.org/2000/svg">
<path fill-rule="evenodd" clip-rule="evenodd" d="M11.9903 2C9.34665 2 7.45427 2.09184 6.2191 2.18427C4.85716 2.28618 3.8012 3.39158 3.69536 4.8193C3.59843 6.12713 3.5 8.10051 3.5 10.7234V19.6596C3.5 19.6652 3.50008 19.6707 3.50024 19.6763C3.50081 19.8802 3.5119 20.0679 3.53061 20.2399C3.66184 21.446 4.7312 21.9302 5.58593 21.9478C6.72052 21.9711 8.74259 22 11.8076 22C14.3771 22 16.305 21.9797 17.5912 21.9594C18.2359 21.9492 18.8806 21.9382 19.525 21.9187C19.8605 21.9081 20.1246 21.6138 20.1145 21.2614C20.1044 20.9091 19.8241 20.6321 19.4886 20.6426L19.3043 20.6479V18.3609C20.0199 17.958 20.5074 17.1623 20.4999 16.2489C20.4901 15.0596 20.4805 13.2455 20.4805 10.7234C20.4805 8.10051 20.3821 6.12713 20.2852 4.8193C20.1793 3.39162 19.1234 2.28618 17.7614 2.18427C16.5263 2.09184 14.6338 2 11.9903 2ZM5.60148 18.6486C6.7457 18.6253 8.82013 18.5957 11.9903 18.5957C14.7338 18.5957 16.7703 18.6179 18.0886 18.639V20.6742C17.9302 20.6771 17.7583 20.6801 17.573 20.683C16.2928 20.7031 14.3711 20.7234 11.8076 20.7234C8.7498 20.7234 6.7357 20.6946 5.60978 20.6714C5.26335 20.6643 4.78497 20.5223 4.73845 20.095C4.72456 19.9672 4.71589 19.8224 4.71589 19.6596C4.71589 19.4905 4.72533 19.3408 4.74055 19.2096C4.78873 18.7953 5.26691 18.6554 5.60148 18.6486ZM7.34976 6.46807C7.34976 5.99804 7.71263 5.61701 8.16024 5.61701H15.4545C15.9022 5.61701 16.265 5.99804 16.265 6.46807C16.265 6.93814 15.9022 7.31913 15.4545 7.31913H8.16024C7.71263 7.31913 7.34976 6.93814 7.34976 6.46807ZM8.16024 9.87232C7.71263 9.87232 7.34976 10.2534 7.34976 10.7234C7.34976 11.1934 7.71263 11.5744 8.16024 11.5744H11.8074C12.255 11.5744 12.6179 11.1935 12.6179 10.7234C12.6179 10.2533 12.255 9.87232 11.8074 9.87232H8.16024Z" fill="#AB4ABA"/>
</svg>
